<svg>
<symbol stroke-width="0" viewBox="0 0 24 24" xmlns="http://www.w3.org/2000/svg" id="user"><path d="M12 2a5 5 0 1 0 5 5 5 5 0 0 0-5-5zm0 8a3 3 0 1 1 3-3 3 3 0 0 1-3 3zm9 11v-1a7 7 0 0 0-7-7h-4a7 7 0 0 0-7 7v1h2v-1a5 5 0 0 1 5-5h4a5 5 0 0 1 5 5v1z"></path></symbol>

<symbol xmlns="http://www.w3.org/2000/svg" viewBox="0 0 32 32" id="home"><path d="M16 2.594l-.72.687-13 13 1.44 1.44L5 16.437V28h9V18h4v10h9V16.437l1.28 1.282 1.44-1.44-13-13-.72-.686zm0 2.844l9 9V26h-5V16h-8v10H7V14.437l9-9z"/></symbol>

<symbol stroke-width="0" viewBox="0 0 28 48" xmlns="http://www.w3.org/2000/svg" id="left"><path d="M26.2583 1.53454C26.9194 2.19716 27.2908 3.09574 27.2908 4.03268C27.2908 4.96962 26.9194 5.8682 26.2583 6.53082L8.8027 24.0213L26.2583 41.5118C26.9007 42.1783 27.2561 43.0708 27.2481 43.9973C27.24 44.9237 26.8692 45.81 26.2153 46.4651C25.5615 47.1202 24.6771 47.4918 23.7525 47.4999C22.8278 47.5079 21.9371 47.1518 21.272 46.5081L11.2976 36.5138L1.32325 26.5195C0.662153 25.8569 0.290771 24.9583 0.290771 24.0213C0.290771 23.0844 0.662153 22.1858 1.32325 21.5232L21.272 1.53454C21.9333 0.872125 22.8301 0.5 23.7651 0.5C24.7002 0.5 25.597 0.872125 26.2583 1.53454Z"></path></symbol>

<symbol stroke-width="0" viewBox="0 0 28 48" xmlns="http://www.w3.org/2000/svg" id="right"><path d="M1.32325 1.53454C0.662155 2.19716 0.290771 3.09574 0.290771 4.03268C0.290771 4.96962 0.662155 5.8682 1.32325 6.53082L18.7788 24.0213L1.32325 41.5118C0.680891 42.1783 0.325451 43.0708 0.333485 43.9973C0.34152 44.9237 0.712385 45.81 1.36621 46.4651C2.02003 47.1202 2.90449 47.4918 3.82909 47.4999C4.7537 47.5079 5.64447 47.1518 6.30955 46.5081L16.2839 36.5138L26.2583 26.5195C26.9194 25.8569 27.2908 24.9583 27.2908 24.0213C27.2908 23.0844 26.9194 22.1858 26.2583 21.5232L6.30955 1.53454C5.64826 0.872125 4.75147 0.5 3.8164 0.5C2.88133 0.5 1.98454 0.872125 1.32325 1.53454Z"></path></symbol>  

<symbol stroke-width="0" viewBox="0 0 24 24" xmlns="http://www.w3.org/2000/svg" id="basket"><path d="M12.0049 2C15.3186 2 18.0049 4.68629 18.0049 8V9H22.0049V11H20.8379L20.0813 20.083C20.0381 20.6013 19.6048 21 19.0847 21H4.92502C4.40493 21 3.97166 20.6013 3.92847 20.083L3.17088 11H2.00488V9H6.00488V8C6.00488 4.68629 8.69117 2 12.0049 2ZM18.8309 11H5.17788L5.84488 19H18.1639L18.8309 11ZM13.0049 13V17H11.0049V13H13.0049ZM9.00488 13V17H7.00488V13H9.00488ZM17.0049 13V17H15.0049V13H17.0049ZM12.0049 4C9.86269 4 8.1138 5.68397 8.00978 7.80036L8.00488 8V9H16.0049V8C16.0049 5.8578 14.3209 4.10892 12.2045 4.0049L12.0049 4Z"></path></symbol>

<symbol stroke-width="0" viewBox="0 0 16 16" xmlns="http://www.w3.org/2000/svg" id="facebook"><path d="M16 8.049c0-4.446-3.582-8.05-8-8.05C3.58 0-.002 3.603-.002 8.05c0 4.017 2.926 7.347 6.75 7.951v-5.625h-2.03V8.05H6.75V6.275c0-2.017 1.195-3.131 3.022-3.131.876 0 1.791.157 1.791.157v1.98h-1.009c-.993 0-1.303.621-1.303 1.258v1.51h2.218l-.354 2.326H9.25V16c3.824-.604 6.75-3.934 6.75-7.951z"></path></symbol>

<symbol stroke-width="0" viewBox="0 0 16 16" xmlns="http://www.w3.org/2000/svg" id="instagram"><path d="M8 0C5.829 0 5.556.01 4.703.048 3.85.088 3.269.222 2.76.42a3.917 3.917 0 0 0-1.417.923A3.927 3.927 0 0 0 .42 2.76C.222 3.268.087 3.85.048 4.7.01 5.555 0 5.827 0 8.001c0 2.172.01 2.444.048 3.297.04.852.174 1.433.372 1.942.205.526.478.972.923 1.417.444.445.89.719 1.416.923.51.198 1.09.333 1.942.372C5.555 15.99 5.827 16 8 16s2.444-.01 3.298-.048c.851-.04 1.434-.174 1.943-.372a3.916 3.916 0 0 0 1.416-.923c.445-.445.718-.891.923-1.417.197-.509.332-1.09.372-1.942C15.99 10.445 16 10.173 16 8s-.01-2.445-.048-3.299c-.04-.851-.175-1.433-.372-1.941a3.926 3.926 0 0 0-.923-1.417A3.911 3.911 0 0 0 13.24.42c-.51-.198-1.092-.333-1.943-.372C10.443.01 10.172 0 7.998 0h.003zm-.717 1.442h.718c2.136 0 2.389.007 3.232.046.78.035 1.204.166 1.486.275.373.145.64.319.92.599.28.28.453.546.598.92.11.281.24.705.275 1.485.039.843.047 1.096.047 3.231s-.008 2.389-.047 3.232c-.035.78-.166 1.203-.275 1.485a2.47 2.47 0 0 1-.599.919c-.28.28-.546.453-.92.598-.28.11-.704.24-1.485.276-.843.038-1.096.047-3.232.047s-2.39-.009-3.233-.047c-.78-.036-1.203-.166-1.485-.276a2.478 2.478 0 0 1-.92-.598 2.48 2.48 0 0 1-.6-.92c-.109-.281-.24-.705-.275-1.485-.038-.843-.046-1.096-.046-3.233 0-2.136.008-2.388.046-3.231.036-.78.166-1.204.276-1.486.145-.373.319-.64.599-.92.28-.28.546-.453.92-.598.282-.11.705-.24 1.485-.276.738-.034 1.024-.044 2.515-.045v.002zm4.988 1.328a.96.96 0 1 0 0 1.92.96.96 0 0 0 0-1.92zm-4.27 1.122a4.109 4.109 0 1 0 0 8.217 4.109 4.109 0 0 0 0-8.217zm0 1.441a2.667 2.667 0 1 1 0 5.334 2.667 2.667 0 0 1 0-5.334z"></path></symbol>

<symbol stroke-width="0" viewBox="0 0 1024 1024" xmlns="http://www.w3.org/2000/svg" id="remove"><path d="M864 256H736v-80c0-35.3-28.7-64-64-64H352c-35.3 0-64 28.7-64 64v80H160c-17.7 0-32 14.3-32 32v32c0 4.4 3.6 8 8 8h60.4l24.7 523c1.6 34.1 29.8 61 63.9 61h454c34.2 0 62.3-26.8 63.9-61l24.7-523H888c4.4 0 8-3.6 8-8v-32c0-17.7-14.3-32-32-32zm-200 0H360v-72h304v72z"></path></symbol>

<symbol stroke-width="0" viewBox="0 0 1024 1024" xmlns="http://www.w3.org/2000/svg" id="heart"><path d="M923 283.6a260.04 260.04 0 0 0-56.9-82.8 264.4 264.4 0 0 0-84-55.5A265.34 265.34 0 0 0 679.7 125c-49.3 0-97.4 13.5-139.2 39-10 6.1-19.5 12.8-28.5 20.1-9-7.3-18.5-14-28.5-20.1-41.8-25.5-89.9-39-139.2-39-35.5 0-69.9 6.8-102.4 20.3-31.4 13-59.7 31.7-84 55.5a258.44 258.44 0 0 0-56.9 82.8c-13.9 32.3-21 66.6-21 101.9 0 33.3 6.8 68 20.3 103.3 11.3 29.5 27.5 60.1 48.2 91 32.8 48.9 77.9 99.9 133.9 151.6 92.8 85.7 184.7 144.9 188.6 147.3l23.7 15.2c10.5 6.7 24 6.7 34.5 0l23.7-15.2c3.9-2.5 95.7-61.6 188.6-147.3 56-51.7 101.1-102.7 133.9-151.6 20.7-30.9 37-61.5 48.2-91 13.5-35.3 20.3-70 20.3-103.3.1-35.3-7-69.6-20.9-101.9zM512 814.8S156 586.7 156 385.5C156 283.6 240.3 201 344.3 201c73.1 0 136.5 40.8 167.7 100.4C543.2 241.8 606.6 201 679.7 201c104 0 188.3 82.6 188.3 184.5 0 201.2-356 429.3-356 429.3z"></path></symbol>

<symbol stroke-width="0" viewBox="0 0 1024 1024" xmlns="http://www.w3.org/2000/svg" id="heart-filled"><path d="M923 283.6a260.04 260.04 0 0 0-56.9-82.8 264.4 264.4 0 0 0-84-55.5A265.34 265.34 0 0 0 679.7 125c-49.3 0-97.4 13.5-139.2 39-10 6.1-19.5 12.8-28.5 20.1-9-7.3-18.5-14-28.5-20.1-41.8-25.5-89.9-39-139.2-39-35.5 0-69.9 6.8-102.4 20.3-31.4 13-59.7 31.7-84 55.5a258.44 258.44 0 0 0-56.9 82.8c-13.9 32.3-21 66.6-21 101.9 0 33.3 6.8 68 20.3 103.3 11.3 29.5 27.5 60.1 48.2 91 32.8 48.9 77.9 99.9 133.9 151.6 92.8 85.7 184.7 144.9 188.6 147.3l23.7 15.2c10.5 6.7 24 6.7 34.5 0l23.7-15.2c3.9-2.5 95.7-61.6 188.6-147.3 56-51.7 101.1-102.7 133.9-151.6 20.7-30.9 37-61.5 48.2-91 13.5-35.3 20.3-70 20.3-103.3.1-35.3-7-69.6-20.9-101.9z"></path></symbol>

<symbol xmlns="http://www.w3.org/2000/svg" viewBox="0 0 50 50" id="settings"><path d="M 22.205078 2 A 1.0001 1.0001 0 0 0 21.21875 2.8378906 L 20.246094 8.7929688 C 19.076509 9.1331971 17.961243 9.5922728 16.910156 10.164062 L 11.996094 6.6542969 A 1.0001 1.0001 0 0 0 10.708984 6.7597656 L 6.8183594 10.646484 A 1.0001 1.0001 0 0 0 6.7070312 11.927734 L 10.164062 16.873047 C 9.583454 17.930271 9.1142098 19.051824 8.765625 20.232422 L 2.8359375 21.21875 A 1.0001 1.0001 0 0 0 2.0019531 22.205078 L 2.0019531 27.705078 A 1.0001 1.0001 0 0 0 2.8261719 28.691406 L 8.7597656 29.742188 C 9.1064607 30.920739 9.5727226 32.043065 10.154297 33.101562 L 6.6542969 37.998047 A 1.0001 1.0001 0 0 0 6.7597656 39.285156 L 10.648438 43.175781 A 1.0001 1.0001 0 0 0 11.927734 43.289062 L 16.882812 39.820312 C 17.936999 40.39548 19.054994 40.857928 20.228516 41.201172 L 21.21875 47.164062 A 1.0001 1.0001 0 0 0 22.205078 48 L 27.705078 48 A 1.0001 1.0001 0 0 0 28.691406 47.173828 L 29.751953 41.1875 C 30.920633 40.838997 32.033372 40.369697 33.082031 39.791016 L 38.070312 43.291016 A 1.0001 1.0001 0 0 0 39.351562 43.179688 L 43.240234 39.287109 A 1.0001 1.0001 0 0 0 43.34375 37.996094 L 39.787109 33.058594 C 40.355783 32.014958 40.813915 30.908875 41.154297 29.748047 L 47.171875 28.693359 A 1.0001 1.0001 0 0 0 47.998047 27.707031 L 47.998047 22.207031 A 1.0001 1.0001 0 0 0 47.160156 21.220703 L 41.152344 20.238281 C 40.80968 19.078827 40.350281 17.974723 39.78125 16.931641 L 43.289062 11.933594 A 1.0001 1.0001 0 0 0 43.177734 10.652344 L 39.287109 6.7636719 A 1.0001 1.0001 0 0 0 37.996094 6.6601562 L 33.072266 10.201172 C 32.023186 9.6248101 30.909713 9.1579916 29.738281 8.8125 L 28.691406 2.828125 A 1.0001 1.0001 0 0 0 27.705078 2 L 22.205078 2 z M 23.056641 4 L 26.865234 4 L 27.861328 9.6855469 A 1.0001 1.0001 0 0 0 28.603516 10.484375 C 30.066026 10.848832 31.439607 11.426549 32.693359 12.185547 A 1.0001 1.0001 0 0 0 33.794922 12.142578 L 38.474609 8.7792969 L 41.167969 11.472656 L 37.835938 16.220703 A 1.0001 1.0001 0 0 0 37.796875 17.310547 C 38.548366 18.561471 39.118333 19.926379 39.482422 21.380859 A 1.0001 1.0001 0 0 0 40.291016 22.125 L 45.998047 23.058594 L 45.998047 26.867188 L 40.279297 27.871094 A 1.0001 1.0001 0 0 0 39.482422 28.617188 C 39.122545 30.069817 38.552234 31.434687 37.800781 32.685547 A 1.0001 1.0001 0 0 0 37.845703 33.785156 L 41.224609 38.474609 L 38.53125 41.169922 L 33.791016 37.84375 A 1.0001 1.0001 0 0 0 32.697266 37.808594 C 31.44975 38.567585 30.074755 39.148028 28.617188 39.517578 A 1.0001 1.0001 0 0 0 27.876953 40.3125 L 26.867188 46 L 23.052734 46 L 22.111328 40.337891 A 1.0001 1.0001 0 0 0 21.365234 39.53125 C 19.90185 39.170557 18.522094 38.59371 17.259766 37.835938 A 1.0001 1.0001 0 0 0 16.171875 37.875 L 11.46875 41.169922 L 8.7734375 38.470703 L 12.097656 33.824219 A 1.0001 1.0001 0 0 0 12.138672 32.724609 C 11.372652 31.458855 10.793319 30.079213 10.427734 28.609375 A 1.0001 1.0001 0 0 0 9.6328125 27.867188 L 4.0019531 26.867188 L 4.0019531 23.052734 L 9.6289062 22.117188 A 1.0001 1.0001 0 0 0 10.435547 21.373047 C 10.804273 19.898143 11.383325 18.518729 12.146484 17.255859 A 1.0001 1.0001 0 0 0 12.111328 16.164062 L 8.8261719 11.46875 L 11.523438 8.7734375 L 16.185547 12.105469 A 1.0001 1.0001 0 0 0 17.28125 12.148438 C 18.536908 11.394293 19.919867 10.822081 21.384766 10.462891 A 1.0001 1.0001 0 0 0 22.132812 9.6523438 L 23.056641 4 z M 25 17 C 20.593567 17 17 20.593567 17 25 C 17 29.406433 20.593567 33 25 33 C 29.406433 33 33 29.406433 33 25 C 33 20.593567 29.406433 17 25 17 z M 25 19 C 28.325553 19 31 21.674447 31 25 C 31 28.325553 28.325553 31 25 31 C 21.674447 31 19 28.325553 19 25 C 19 21.674447 21.674447 19 25 19 z"/></symbol>

<symbol stroke-width="0" viewBox="0 0 24 24" xmlns="http://www.w3.org/2000/svg" id="edit"><path d="M19.045 7.40137C19.423 7.02337 19.631 6.52137 19.631 5.98737C19.631 5.45337 19.423 4.95137 19.045 4.57337L17.459 2.98737C17.081 2.60937 16.579 2.40137 16.045 2.40137C15.511 2.40137 15.009 2.60937 14.632 2.98637L4 13.5854V18.0004H8.413L19.045 7.40137ZM16.045 4.40137L17.632 5.98637L16.042 7.57037L14.456 5.98537L16.045 4.40137ZM6 16.0004V14.4154L13.04 7.39737L14.626 8.98337L7.587 16.0004H6ZM4 20.0004H20V22.0004H4V20.0004Z"/></symbol>

<symbol width="24" height="24" viewBox="0 0 24 24" fill="none" xmlns="http://www.w3.org/2000/svg" id="eye"><path d="M23.1853 11.6962C23.1525 11.6222 22.3584 9.86062 20.5931 8.09531C18.2409 5.74312 15.27 4.5 12 4.5C8.72999 4.5 5.75905 5.74312 3.40687 8.09531C1.64155 9.86062 0.843741 11.625 0.814679 11.6962C0.772035 11.7922 0.75 11.896 0.75 12.0009C0.75 12.1059 0.772035 12.2097 0.814679 12.3056C0.847491 12.3797 1.64155 14.1403 3.40687 15.9056C5.75905 18.2569 8.72999 19.5 12 19.5C15.27 19.5 18.2409 18.2569 20.5931 15.9056C22.3584 14.1403 23.1525 12.3797 23.1853 12.3056C23.2279 12.2097 23.25 12.1059 23.25 12.0009C23.25 11.896 23.2279 11.7922 23.1853 11.6962ZM12 18C9.11437 18 6.59343 16.9509 4.50655 14.8828C3.65028 14.0313 2.92179 13.0603 2.34374 12C2.92164 10.9396 3.65014 9.9686 4.50655 9.11719C6.59343 7.04906 9.11437 6 12 6C14.8856 6 17.4066 7.04906 19.4934 9.11719C20.3514 9.9684 21.0815 10.9394 21.6609 12C20.985 13.2619 18.0403 18 12 18ZM12 7.5C11.11 7.5 10.2399 7.76392 9.49993 8.25839C8.7599 8.75285 8.18313 9.45566 7.84253 10.2779C7.50194 11.1002 7.41282 12.005 7.58646 12.8779C7.76009 13.7508 8.18867 14.5526 8.81801 15.182C9.44735 15.8113 10.2492 16.2399 11.1221 16.4135C11.995 16.5872 12.8998 16.4981 13.7221 16.1575C14.5443 15.8169 15.2471 15.2401 15.7416 14.5001C16.2361 13.76 16.5 12.89 16.5 12C16.4988 10.8069 16.0242 9.66303 15.1806 8.81939C14.337 7.97575 13.1931 7.50124 12 7.5ZM12 15C11.4066 15 10.8266 14.8241 10.3333 14.4944C9.83993 14.1648 9.45542 13.6962 9.22835 13.1481C9.00129 12.5999 8.94188 11.9967 9.05764 11.4147C9.17339 10.8328 9.45911 10.2982 9.87867 9.87868C10.2982 9.45912 10.8328 9.1734 11.4147 9.05764C11.9967 8.94189 12.5999 9.0013 13.148 9.22836C13.6962 9.45542 14.1648 9.83994 14.4944 10.3333C14.824 10.8266 15 11.4067 15 12C15 12.7956 14.6839 13.5587 14.1213 14.1213C13.5587 14.6839 12.7956 15 12 15Z" fill="#292930"/></symbol>

<symbol width="24" height="24" viewBox="0 0 24 24" fill="none" xmlns="http://www.w3.org/2000/svg" id="eye-closed"><path d="M21.375 16.4063C21.2893 16.4551 21.1948 16.4866 21.097 16.4989C20.9991 16.5112 20.8998 16.5041 20.8047 16.478C20.7097 16.4518 20.6207 16.4072 20.5428 16.3467C20.465 16.2861 20.3999 16.2108 20.3512 16.125L18.57 13.0125C17.5344 13.7127 16.392 14.2402 15.1875 14.5744L15.7378 17.8763C15.754 17.9735 15.7509 18.0729 15.7287 18.1689C15.7065 18.2649 15.6656 18.3556 15.6083 18.4358C15.551 18.516 15.4784 18.5841 15.3948 18.6363C15.3112 18.6884 15.2181 18.7236 15.1209 18.7397C15.0809 18.7462 15.0405 18.7497 15 18.75C14.8225 18.7498 14.6509 18.6866 14.5157 18.5718C14.3804 18.4569 14.2903 18.2979 14.2612 18.1228L13.7203 14.881C12.5795 15.0397 11.4223 15.0397 10.2815 14.881L9.74058 18.1228C9.71147 18.2982 9.62103 18.4575 9.48538 18.5724C9.34974 18.6872 9.1777 18.7502 8.99995 18.75C8.9585 18.7498 8.91712 18.7464 8.8762 18.7397C8.77898 18.7236 8.6859 18.6884 8.60227 18.6363C8.51864 18.5841 8.44611 18.516 8.38882 18.4358C8.33153 18.3556 8.29061 18.2649 8.26839 18.1689C8.24617 18.0729 8.24309 17.9735 8.25933 17.8763L8.81245 14.5744C7.60835 14.2391 6.46664 13.7107 5.43183 13.0097L3.6562 16.125C3.55675 16.2983 3.39252 16.425 3.19965 16.4772C3.00678 16.5294 2.80107 16.5029 2.62776 16.4035C2.45446 16.304 2.32777 16.1398 2.27555 15.9469C2.22333 15.754 2.24987 15.5483 2.34933 15.375L4.22433 12.0938C3.56573 11.5248 2.96013 10.8972 2.41495 10.2188C2.34696 10.1429 2.29516 10.0539 2.2627 9.95729C2.23024 9.86069 2.2178 9.75849 2.22616 9.65693C2.23451 9.55536 2.26347 9.45657 2.31127 9.36657C2.35908 9.27657 2.42472 9.19726 2.5042 9.13347C2.58367 9.06969 2.67531 9.02277 2.77353 8.99558C2.87174 8.96839 2.97446 8.9615 3.07542 8.97533C3.17639 8.98916 3.27347 9.02342 3.36075 9.07602C3.44804 9.12862 3.52368 9.19846 3.58308 9.28127C5.13933 11.2069 7.86183 13.5 12 13.5C16.1381 13.5 18.8606 11.2041 20.4168 9.28127C20.4755 9.19676 20.551 9.12525 20.6386 9.07117C20.7261 9.01708 20.8238 8.9816 20.9257 8.96691C21.0275 8.95222 21.1313 8.95865 21.2306 8.98579C21.3298 9.01293 21.4224 9.06021 21.5026 9.12468C21.5828 9.18915 21.6489 9.26943 21.6968 9.36054C21.7446 9.45164 21.7732 9.55161 21.7807 9.65423C21.7883 9.75686 21.7746 9.85993 21.7406 9.95706C21.7066 10.0542 21.653 10.1433 21.5831 10.2188C21.0379 10.8972 20.4323 11.5248 19.7737 12.0938L21.6487 15.375C21.699 15.4606 21.7319 15.5552 21.7454 15.6535C21.7588 15.7519 21.7527 15.8519 21.7272 15.9478C21.7017 16.0437 21.6575 16.1337 21.597 16.2123C21.5366 16.291 21.4611 16.357 21.375 16.4063Z" fill="#C4BDBD"/></symbol>

<symbol width="40" height="41" viewBox="0 0 40 41" fill="none" xmlns="http://www.w3.org/2000/svg" id="burger"><path d="M35 20.5C35 20.8315 34.8683 21.1495 34.6339 21.3839C34.3995 21.6183 34.0815 21.75 33.75 21.75H6.25C5.91848 21.75 5.60054 21.6183 5.36612 21.3839C5.1317 21.1495 5 20.8315 5 20.5C5 20.1685 5.1317 19.8505 5.36612 19.6161C5.60054 19.3817 5.91848 19.25 6.25 19.25H33.75C34.0815 19.25 34.3995 19.3817 34.6339 19.6161C34.8683 19.8505 35 20.1685 35 20.5ZM6.25 11.75H33.75C34.0815 11.75 34.3995 11.6183 34.6339 11.3839C34.8683 11.1495 35 10.8315 35 10.5C35 10.1685 34.8683 9.85054 34.6339 9.61612C34.3995 9.3817 34.0815 9.25 33.75 9.25H6.25C5.91848 9.25 5.60054 9.3817 5.36612 9.61612C5.1317 9.85054 5 10.1685 5 10.5C5 10.8315 5.1317 11.1495 5.36612 11.3839C5.60054 11.6183 5.91848 11.75 6.25 11.75ZM33.75 29.25H6.25C5.91848 29.25 5.60054 29.3817 5.36612 29.6161C5.1317 29.8505 5 30.1685 5 30.5C5 30.8315 5.1317 31.1495 5.36612 31.3839C5.60054 31.6183 5.91848 31.75 6.25 31.75H33.75C34.0815 31.75 34.3995 31.6183 34.6339 31.3839C34.8683 31.1495 35 30.8315 35 30.5C35 30.1685 34.8683 29.8505 34.6339 29.6161C34.3995 29.3817 34.0815 29.25 33.75 29.25Z" fill="white"/></symbol>

<symbol width="24" height="24" viewBox="0 0 24 24" fill="none" xmlns="http://www.w3.org/2000/svg" id="close"><path d="M19.2806 18.2198C19.3502 18.2895 19.4055 18.3722 19.4432 18.4632C19.4809 18.5543 19.5003 18.6519 19.5003 18.7504C19.5003 18.849 19.4809 18.9465 19.4432 19.0376C19.4055 19.1286 19.3502 19.2114 19.2806 19.281C19.2109 19.3507 19.1281 19.406 19.0371 19.4437C18.9461 19.4814 18.8485 19.5008 18.7499 19.5008C18.6514 19.5008 18.5538 19.4814 18.4628 19.4437C18.3717 19.406 18.289 19.3507 18.2193 19.281L11.9999 13.0607L5.78055 19.281C5.63982 19.4218 5.44895 19.5008 5.24993 19.5008C5.05091 19.5008 4.86003 19.4218 4.7193 19.281C4.57857 19.1403 4.49951 18.9494 4.49951 18.7504C4.49951 18.5514 4.57857 18.3605 4.7193 18.2198L10.9396 12.0004L4.7193 5.78104C4.57857 5.64031 4.49951 5.44944 4.49951 5.25042C4.49951 5.05139 4.57857 4.86052 4.7193 4.71979C4.86003 4.57906 5.05091 4.5 5.24993 4.5C5.44895 4.5 5.63982 4.57906 5.78055 4.71979L11.9999 10.9401L18.2193 4.71979C18.36 4.57906 18.5509 4.5 18.7499 4.5C18.949 4.5 19.1398 4.57906 19.2806 4.71979C19.4213 4.86052 19.5003 5.05139 19.5003 5.25042C19.5003 5.44944 19.4213 5.64031 19.2806 5.78104L13.0602 12.0004L19.2806 18.2198Z" fill="black"/></symbol>

<symbol width="25" height="24" viewBox="0 0 25 24" fill="none" xmlns="http://www.w3.org/2000/svg" id="google-logo"><path d="M21.5 12C21.5001 14.1192 20.7524 16.1704 19.3887 17.7924C18.0249 19.4144 16.1325 20.5032 14.0448 20.8669C11.9571 21.2306 9.80798 20.846 7.97601 19.7808C6.14404 18.7156 4.74671 17.0381 4.03014 15.0437C3.31357 13.0494 3.32371 10.8662 4.05879 8.87861C4.79387 6.89103 6.20672 5.22658 8.04851 4.17843C9.8903 3.13028 12.0429 2.76565 14.1271 3.14877C16.2114 3.5319 18.0935 4.6382 19.4422 6.27281C19.5091 6.34815 19.5602 6.43621 19.5924 6.53172C19.6245 6.62724 19.6371 6.72827 19.6294 6.82875C19.6216 6.92924 19.5937 7.02714 19.5472 7.11659C19.5008 7.20604 19.4368 7.28522 19.3591 7.34939C19.2814 7.41356 19.1915 7.4614 19.0949 7.49007C18.9983 7.51873 18.8968 7.52763 18.7967 7.51622C18.6966 7.50481 18.5998 7.47334 18.512 7.42368C18.4243 7.37402 18.3475 7.30719 18.2863 7.22719C17.1832 5.88967 15.6508 4.97563 13.9497 4.64054C12.2487 4.30546 10.4842 4.57004 8.95621 5.38926C7.42827 6.20849 6.23133 7.53177 5.56902 9.13398C4.90671 10.7362 4.81994 12.5184 5.32346 14.1774C5.82699 15.8363 6.8897 17.2696 8.33083 18.2334C9.77196 19.1972 11.5025 19.632 13.228 19.4637C14.9535 19.2955 16.5675 18.5346 17.7953 17.3106C19.0231 16.0866 19.7889 14.475 19.9625 12.75H12.5C12.3011 12.75 12.1103 12.671 11.9697 12.5303C11.829 12.3897 11.75 12.1989 11.75 12C11.75 11.8011 11.829 11.6103 11.9697 11.4697C12.1103 11.329 12.3011 11.25 12.5 11.25H20.75C20.9489 11.25 21.1397 11.329 21.2803 11.4697C21.421 11.6103 21.5 11.8011 21.5 12Z" fill="#3F3F48"/></symbol>

<symbol width="75" height="65" viewBox="0 0 75 65" fill="none" xmlns="http://www.w3.org/2000/svg" id="logo-light">
<path d="M10.7122 37.3295C10.5776 37.4449 10.4449 37.4972 10.3141 37.4863C10.1774 37.4683 10.0491 37.3877 9.92932 37.2446L4.21538 30.4158C4.09559 30.2726 4.03818 30.1313 4.04317 29.9918C4.04815 29.8524 4.10733 29.734 4.22071 29.6369C4.3341 29.5397 4.43356 29.4913 4.5191 29.4917C4.60574 29.4789 4.72642 29.4923 4.88114 29.5317L14.7355 31.7976L14.4804 32.0163L9.39537 25.9391C9.28157 25.8031 9.23016 25.669 9.24113 25.5366C9.24611 25.3972 9.31592 25.2697 9.45057 25.1543C9.57812 25.045 9.70673 25.0024 9.8364 25.0264C9.96715 25.0373 10.0894 25.1107 10.2032 25.2467L15.9441 32.1077C16.0579 32.2437 16.1159 32.3784 16.118 32.5118C16.1212 32.632 16.0661 32.7406 15.9527 32.8378C15.8464 32.9289 15.7434 32.9803 15.6437 32.9921C15.544 33.0038 15.4198 32.9935 15.271 32.9612L5.42726 30.6862L5.67175 30.4766L10.7478 36.543C10.8676 36.6862 10.925 36.8275 10.92 36.967C10.9091 37.0993 10.8398 37.2201 10.7122 37.3295ZM20.2145 29.2219C19.7113 29.6532 19.1827 29.9158 18.6285 30.0097C18.0743 30.1037 17.5268 30.0383 16.9858 29.8136C16.446 29.5756 15.9455 29.1811 15.4843 28.6299C15.1369 28.2147 14.8822 27.7939 14.7201 27.3675C14.5519 26.9339 14.4789 26.5048 14.5009 26.0803C14.5229 25.6558 14.6319 25.2551 14.8277 24.8784C15.0246 24.4883 15.3108 24.1324 15.6864 23.8104C16.1896 23.3792 16.7182 23.1166 17.2724 23.0227C17.8266 22.9287 18.3736 23.0007 18.9134 23.2387C19.4543 23.4634 19.9554 23.8513 20.4165 24.4025C20.7639 24.8176 21.0187 25.2384 21.1808 25.6649C21.343 26.0913 21.416 26.5204 21.4 26.9521C21.3779 27.3766 21.2685 27.7838 21.0716 28.1739C20.8757 28.5507 20.59 28.9 20.2145 29.2219ZM19.6305 28.524C19.9494 28.2507 20.1634 27.932 20.2726 27.568C20.3818 27.2041 20.3743 26.8171 20.2503 26.4071C20.1334 25.9911 19.8983 25.5719 19.5449 25.1496C18.9999 24.4982 18.4383 24.1252 17.8603 24.0306C17.2893 23.93 16.7594 24.0893 16.2704 24.5084C15.9444 24.7878 15.7268 25.1094 15.6177 25.4734C15.5096 25.8242 15.514 26.2076 15.6309 26.6236C15.7489 27.0264 15.9906 27.4462 16.356 27.8828C16.895 28.527 17.4566 28.9 18.0406 29.0017C18.6186 29.0963 19.1486 28.937 19.6305 28.524ZM25.7171 24.5056C25.3982 24.7789 25.0428 25.0159 24.651 25.2165C24.2662 25.4111 23.8548 25.5302 23.4167 25.5738C23.3039 25.5845 23.2064 25.5697 23.1241 25.5296C23.0359 25.4823 22.9683 25.4234 22.9215 25.3529C22.8758 25.2692 22.8532 25.1841 22.8538 25.0975C22.8615 25.0049 22.8942 24.9277 22.952 24.8658C23.0109 24.7908 23.1008 24.7383 23.2218 24.7084C23.6419 24.6433 24.0095 24.5372 24.3245 24.3901C24.6406 24.2298 24.9262 24.0403 25.1813 23.8216C25.5853 23.4754 25.8271 23.1391 25.9068 22.8126C25.9866 22.4862 25.9186 22.1941 25.703 21.9364C25.5353 21.736 25.3362 21.6362 25.1057 21.6371C24.8693 21.6308 24.5788 21.72 24.2344 21.9046L23.0874 22.5189C22.5631 22.8085 22.0952 22.9329 21.6839 22.8922C21.2796 22.8453 20.9248 22.6394 20.6193 22.2743C20.3498 21.9522 20.2007 21.6068 20.172 21.238C20.1444 20.856 20.2291 20.47 20.426 20.08C20.6229 19.69 20.9233 19.3219 21.3273 18.9756C21.6391 18.7084 21.9691 18.4993 22.3173 18.3483C22.6667 18.1841 23.0296 18.0942 23.4061 18.0788C23.5189 18.0682 23.6159 18.0896 23.697 18.1429C23.7793 18.183 23.8397 18.248 23.8784 18.3378C23.9181 18.4144 23.9341 18.499 23.9264 18.5916C23.9128 18.6771 23.8735 18.7538 23.8086 18.8217C23.7438 18.8895 23.6514 18.9318 23.5315 18.9486C23.1991 18.9876 22.8961 19.0691 22.6225 19.1929C22.343 19.3097 22.0969 19.4591 21.8843 19.6413C21.4874 19.9815 21.2521 20.3184 21.1784 20.652C21.1047 20.9856 21.1756 21.2812 21.3912 21.5389C21.5589 21.7394 21.7605 21.8493 21.9958 21.8688C22.2312 21.8884 22.5075 21.8113 22.8247 21.6378L23.9627 21.0127C24.5072 20.7181 24.9856 20.5846 25.3981 20.6121C25.8116 20.6264 26.1741 20.8197 26.4856 21.1919C26.8809 21.6643 27.0075 22.2011 26.8655 22.8022C26.7235 23.4033 26.3407 23.9711 25.7171 24.5056ZM31.1124 19.8812C30.7085 20.2274 30.3084 20.4474 29.9122 20.5411C29.5172 20.6216 29.1355 20.58 28.7673 20.4162C28.3931 20.2453 28.0353 19.9558 27.6939 19.5478L25.4029 16.8099L24.6907 17.4203C24.5702 17.5236 24.4541 17.5739 24.3425 17.5713C24.2248 17.5615 24.121 17.503 24.0312 17.3956C23.9413 17.2882 23.9043 17.1786 23.9202 17.0667C23.9361 16.9547 24.0042 16.8471 24.1247 16.7439L24.8369 16.1334L23.8037 14.8987C23.6839 14.7555 23.6331 14.6147 23.6511 14.4764C23.6632 14.3308 23.7365 14.2003 23.8712 14.0849C24.0058 13.9695 24.1415 13.9208 24.2783 13.9388C24.4161 13.9436 24.5449 14.0175 24.6647 14.1607L25.6979 15.3955L27.0373 14.2475C27.1577 14.1442 27.2738 14.0939 27.3855 14.0965C27.4972 14.0991 27.598 14.1541 27.6878 14.2615C27.7776 14.3688 27.8176 14.4821 27.8078 14.6012C27.7919 14.7131 27.7237 14.8207 27.6033 14.9239L26.2639 16.0719L28.483 18.724C28.8244 19.132 29.17 19.3705 29.5197 19.4394C29.8635 19.5012 30.2267 19.3681 30.6094 19.0402C30.744 18.9247 30.8455 18.8132 30.9136 18.7057C30.9889 18.592 31.0584 18.5078 31.1222 18.4532C31.18 18.3913 31.2511 18.3673 31.3355 18.3809C31.42 18.3946 31.5131 18.4623 31.6149 18.5839C31.6868 18.6698 31.735 18.7638 31.7594 18.8657C31.791 18.9616 31.7797 19.0572 31.7258 19.1527C31.6647 19.2542 31.5723 19.3764 31.4485 19.5194C31.3378 19.6634 31.2258 19.784 31.1124 19.8812ZM33.1737 18.0776C33.032 18.1991 32.8892 18.2538 32.7454 18.2419C32.6086 18.2239 32.4803 18.1433 32.3605 18.0002L28.6141 13.5228C28.4943 13.3797 28.4399 13.2419 28.4509 13.1096C28.4559 12.9701 28.5257 12.8427 28.6603 12.7273C28.795 12.6119 28.9307 12.5632 29.0674 12.5812C29.2053 12.5859 29.3341 12.6599 29.4539 12.8031L30.1816 13.6728L30.0753 13.7639C29.8353 13.2444 29.7789 12.7334 29.9062 12.231C30.0334 11.7287 30.3249 11.2699 30.7806 10.8547C30.8809 10.7564 30.9869 10.7086 31.0986 10.7112C31.2043 10.7066 31.3146 10.7657 31.4295 10.8885C31.5384 11.0041 31.5909 11.125 31.5871 11.2513C31.5832 11.3775 31.5199 11.5055 31.3972 11.6352L31.2451 11.8025C30.7992 12.2584 30.5589 12.7348 30.5243 13.2315C30.4908 13.715 30.6687 14.1894 31.058 14.6547L33.2322 17.2531C33.352 17.3962 33.4058 17.5406 33.3938 17.6861C33.3888 17.8256 33.3154 17.9561 33.1737 18.0776ZM38.14 13.8578C37.7857 14.1615 37.4099 14.3668 37.0126 14.4738C36.6165 14.5675 36.2351 14.5625 35.8684 14.4589C35.5018 14.3552 35.1927 14.153 34.9411 13.8524C34.6177 13.4659 34.4588 13.0796 34.4645 12.6937C34.4772 12.3018 34.6679 11.8679 35.0365 11.3922C35.4122 10.9104 35.9898 10.3355 36.7693 9.66735L37.2476 9.25736L37.7238 9.82643L37.2561 10.2273C36.6821 10.7193 36.2525 11.1367 35.9673 11.4794C35.6833 11.8089 35.5278 12.0958 35.501 12.34C35.4813 12.5782 35.5702 12.8154 35.7679 13.0516C36.0134 13.3451 36.3133 13.4998 36.6674 13.5159C37.0287 13.5259 37.3829 13.382 37.7301 13.0844C38.0136 12.8414 38.2047 12.5609 38.3035 12.2426C38.4094 11.9183 38.4238 11.5865 38.3466 11.247C38.2765 10.9014 38.1127 10.5748 37.8551 10.267L36.8309 9.04296C36.4596 8.59916 36.1045 8.35655 35.7656 8.31513C35.4207 8.26655 35.0463 8.41537 34.6424 8.76158C34.3944 8.97417 34.1733 9.21897 33.9792 9.49598C33.785 9.77298 33.6097 10.1015 33.4531 10.4816C33.3958 10.6167 33.3258 10.7075 33.2429 10.7539C33.1541 10.7932 33.0644 10.8024 32.974 10.7816C32.8836 10.7607 32.8049 10.7176 32.7379 10.6521C32.6649 10.5794 32.6162 10.4921 32.5917 10.3902C32.5744 10.2821 32.5902 10.1702 32.6393 10.0544C32.8194 9.62964 33.0318 9.25089 33.2766 8.91813C33.5214 8.58538 33.782 8.30056 34.0584 8.06367C34.5049 7.68102 34.9363 7.44033 35.3526 7.34162C35.7629 7.23575 36.1647 7.2724 36.558 7.45156C36.9453 7.62356 37.3336 7.9422 37.7229 8.40747L40.1577 11.3172C40.2774 11.4604 40.3348 11.6017 40.3299 11.7412C40.332 11.8746 40.2692 11.9959 40.1417 12.1053C40.007 12.2207 39.8713 12.2694 39.7346 12.2514C39.5978 12.2334 39.4696 12.1528 39.3498 12.0096L38.649 11.1721L38.7447 11.0901C38.9156 11.4107 39.0004 11.7375 38.9991 12.0705C39.005 12.3974 38.9359 12.7147 38.7918 13.0225C38.6478 13.3304 38.4305 13.6088 38.14 13.8578Z" fill="white"/>
<path d="M48.8746 26.7801C48.7933 26.6121 48.7763 26.4591 48.8235 26.3211C48.8832 26.1873 48.9967 26.079 49.1639 25.9961L57.0286 22.0973C57.2042 22.0102 57.3562 21.9922 57.4845 22.0431C57.6212 22.09 57.7302 22.1974 57.8116 22.3654L59.257 25.352C59.7164 26.3014 59.836 27.1483 59.6157 27.893C59.4038 28.6334 58.8756 29.213 58.031 29.6317C57.1948 30.0462 56.4185 30.1133 55.7022 29.833C54.9859 29.5527 54.398 28.9379 53.9386 27.9885L52.7371 25.506L49.664 27.0294C49.4968 27.1123 49.3427 27.1366 49.2017 27.1024C49.069 27.064 48.96 26.9565 48.8746 26.7801ZM53.6026 25.0769L54.7431 27.4334C55.0724 28.1139 55.471 28.5518 55.9387 28.747C56.4189 28.9465 56.9516 28.9011 57.537 28.611C58.1307 28.3166 58.4927 27.9184 58.623 27.4163C58.7657 26.9185 58.6724 26.3293 58.343 25.6488L57.2026 23.2923L53.6026 25.0769ZM52.6859 34.591C52.6046 34.423 52.5896 34.2742 52.6409 34.1446C52.7006 34.0108 52.8182 33.9004 52.9938 33.8134L58.124 31.2701C58.2997 31.1831 58.4538 31.1588 58.5864 31.1972C58.7191 31.2356 58.826 31.3388 58.9074 31.5068C58.9846 31.6665 58.9996 31.8153 58.9523 31.9533C58.9051 32.0913 58.7937 32.2038 58.618 32.2909L53.4878 34.8341C53.3122 34.9212 53.1519 34.9434 53.0068 34.9007C52.8742 34.8623 52.7672 34.7591 52.6859 34.591ZM60.3122 30.8104C60.2106 30.6004 60.1856 30.4096 60.2374 30.2381C60.2976 30.0624 60.4238 29.9269 60.6161 29.8316C60.8168 29.7321 60.9958 29.7163 61.1531 29.7842C61.3187 29.8479 61.4524 29.9848 61.554 30.1948C61.6597 30.4132 61.6846 30.604 61.6288 30.7671C61.5854 30.9345 61.4633 31.0679 61.2626 31.1674C61.0703 31.2627 60.8871 31.2806 60.7131 31.221C60.5516 31.1657 60.4179 31.0288 60.3122 30.8104ZM53.977 37.0982C53.9242 36.989 53.9065 36.8884 53.9242 36.7963C53.9418 36.7042 53.9864 36.6248 54.0578 36.5582C54.1292 36.4915 54.2212 36.4459 54.3338 36.4214C54.4463 36.3968 54.5689 36.4038 54.7015 36.4422L61.1502 37.6516L60.8868 37.7822L59.2584 34.4175C59.1934 34.2831 59.176 34.1615 59.2063 34.0528C59.249 33.9482 59.3331 33.8649 59.4586 33.8027C59.584 33.7405 59.6964 33.7265 59.7958 33.7605C59.8993 33.8029 59.9836 33.8914 60.0487 34.0258L61.921 37.8946C61.982 38.0206 62.0057 38.1338 61.9921 38.2343C61.9826 38.3432 61.9421 38.431 61.8707 38.4976C61.8076 38.5601 61.7198 38.6037 61.6073 38.6282C61.5071 38.657 61.3928 38.6564 61.2642 38.6264L54.7349 37.3788L55.0234 37.2358L56.7371 40.7769C56.8713 41.0541 56.8088 41.257 56.5495 41.3855C56.4241 41.4477 56.3055 41.4596 56.1936 41.4213C56.0942 41.3873 56.0119 41.303 55.9469 41.1686L53.977 37.0982ZM56.8001 42.9315C56.7472 42.8223 56.7296 42.7216 56.7472 42.6295C56.7649 42.5375 56.8094 42.4581 56.8808 42.3914C56.9523 42.3248 57.0443 42.2792 57.1568 42.2546C57.2693 42.2301 57.3919 42.237 57.5246 42.2754L63.9732 43.4849L63.7098 43.6155L62.0815 40.2508C62.0164 40.1164 61.9991 39.9948 62.0294 39.886C62.0721 39.7815 62.1562 39.6981 62.2816 39.636C62.407 39.5738 62.5195 39.5597 62.6189 39.5938C62.7224 39.6362 62.8067 39.7246 62.8717 39.8591L64.744 43.7278C64.805 43.8538 64.8287 43.9671 64.8151 44.0676C64.8056 44.1765 64.7651 44.2642 64.6937 44.3309C64.6307 44.3934 64.5428 44.4369 64.4303 44.4615C64.3302 44.4903 64.2158 44.4897 64.0873 44.4596L57.5579 43.212L57.8464 43.069L59.5602 46.6101C59.6943 46.8874 59.6318 47.0902 59.3726 47.2187C59.2471 47.2809 59.1285 47.2929 59.0167 47.2546C58.9172 47.2205 58.835 47.1363 58.7699 47.0019L56.8001 42.9315ZM60.3586 50.5738C60.1553 50.1538 60.0518 49.7363 60.0481 49.3215C60.0568 48.911 60.1565 48.5386 60.3473 48.2044C60.5381 47.8703 60.8091 47.6161 61.1603 47.442C61.6119 47.2182 62.0222 47.1554 62.3912 47.2537C62.7642 47.3604 63.1332 47.6515 63.4981 48.1269C63.867 48.6107 64.2751 49.3146 64.7223 50.2388L64.9967 50.8058L64.3319 51.1354L64.0636 50.5809C63.7343 49.9004 63.4406 49.3793 63.1826 49.0176C62.9371 48.6602 62.7004 48.439 62.4726 48.354C62.2489 48.2774 61.9991 48.3075 61.7231 48.4443C61.3803 48.6142 61.1571 48.8707 61.0535 49.2137C60.954 49.5652 61.0038 49.9467 61.2031 50.3583C61.3657 50.6944 61.5874 50.9491 61.8683 51.1223C62.1532 51.304 62.4682 51.3979 62.8133 51.4039C63.1624 51.4183 63.5168 51.3364 63.8764 51.1581L65.3063 50.4493C65.8248 50.1922 66.1461 49.9028 66.2702 49.5808C66.4027 49.2547 66.3531 48.8522 66.1213 48.3733C65.979 48.0793 65.7991 47.8039 65.5815 47.5472C65.3639 47.2904 65.0923 47.0397 64.7664 46.795C64.651 46.7064 64.5813 46.6159 64.5574 46.5236C64.5418 46.4272 64.5552 46.3372 64.5978 46.2536C64.6403 46.17 64.7013 46.1033 64.7808 46.0535C64.8688 45.9995 64.9647 45.9727 65.0686 45.9733C65.1767 45.9822 65.2802 46.0247 65.3791 46.1006C65.742 46.3791 66.0526 46.6782 66.3111 46.998C66.5695 47.3178 66.7781 47.6415 66.9366 47.9692C67.1928 48.4984 67.3164 48.9788 67.3075 49.4103C67.3069 49.8377 67.1717 50.2224 66.9018 50.5646C66.6403 50.9026 66.2377 51.2063 65.6942 51.4757L62.295 53.1608C62.1277 53.2438 61.9778 53.266 61.8451 53.2276C61.7166 53.1976 61.6157 53.107 61.5425 52.9557C61.4652 52.7961 61.4523 52.6515 61.5036 52.5219C61.5549 52.3923 61.6642 52.286 61.8315 52.2031L62.8098 51.7181L62.8647 51.8315C62.5144 51.9218 62.1796 51.9263 61.8603 51.845C61.5451 51.7721 61.2577 51.6282 60.9981 51.4131C60.7385 51.198 60.5253 50.9183 60.3586 50.5738Z" fill="white"/>
<path d="M23.8108 55.1562C23.8108 55.1562 21.6725 55.6972 20.6034 55.6972C19.5342 55.6972 17.9305 54.0742 17.9305 54.0742C17.9305 54.0742 19.5342 41.6304 24.3453 35.138C29.1564 28.6457 39.3132 23.7764 39.3132 23.7764C39.3132 23.7764 40.8748 24.5189 41.4515 25.3995C42.153 26.4707 41.986 28.6457 41.986 28.6457" stroke="white" stroke-width="1.07605"/>
<path d="M41.986 28.6456H42.5206" stroke="white" stroke-width="1.07605"/>
<path d="M59.6268 60.0255C59.6268 60.0255 60.3214 61.0004 60.1613 61.6486C59.9349 62.5653 58.0231 62.7307 58.0231 62.7307L44.1243 60.0255C44.1243 60.0255 43.6248 60.9503 43.0552 61.1076C42.4183 61.2834 41.4515 60.5665 41.4515 60.5665C41.4515 60.5665 41.8249 61.9747 41.4515 62.7307C41.1874 63.2652 40.9251 63.5773 40.3824 63.8127C39.8067 64.0624 39.3543 64.0624 38.7787 63.8127C38.2359 63.5773 38.0518 63.2176 37.7095 62.7307C36.7339 61.3426 37.175 58.4024 37.175 58.4024L32.8984 57.3203C32.8984 57.3203 33.0632 58.3319 32.8984 58.9434C32.7756 59.3992 32.6939 59.6914 32.3639 60.0255C32.0338 60.3596 31.7615 60.5665 31.2947 60.5665C30.8279 60.5665 30.2256 60.0255 30.2256 60.0255C29.8081 59.8142 29.5043 59.7995 29.1565 59.4845C28.3632 58.7661 28.6219 56.7793 28.6219 56.7793C28.6219 56.7793 25.5656 56.0855 23.8108 55.1562" stroke="white" stroke-width="1.07605"/>
<path d="M59.6267 60.0255L42.5206 29.1867H41.986V28.6456H42.5206" stroke="white" stroke-width="1.07605"/>
<path d="M59.5092 60.0499C59.5011 60.1232 59.4371 60.1146 59.3798 60.1146" stroke="white" stroke-width="0.538024" stroke-linecap="round"/>
<path d="M42.5381 28.6588H42.5058" stroke="white" stroke-width="0.538024" stroke-linecap="round"/>
<path d="M42.5381 28.5932C42.5096 28.5611 42.5058 28.5379 42.5058 28.4962" stroke="white" stroke-width="0.538024" stroke-linecap="round"/>
<path d="M42.4736 28.3986C42.4644 28.3143 42.3497 28.2881 42.3451 28.2034C42.3413 28.1347 42.3414 28.0984 42.3129 28.0408" stroke="white" stroke-width="0.538024" stroke-linecap="round"/>
<path d="M23.8107 55.1562C23.8107 55.1562 23.7301 50.8063 24.3453 48.1228C25.064 44.9879 25.8962 43.2954 27.5527 40.5483C29.2515 37.7312 30.4555 36.2423 32.8984 34.056C35.9828 31.2954 41.986 28.6456 41.986 28.6456" stroke="white" stroke-width="1.07605"/>
<path d="M28.5889 46.0296C28.2322 46.2751 28.0648 46.7553 27.7693 47.0543C27.6605 47.1644 27.6257 47.3812 27.5603 47.526C27.4322 47.8098 27.3521 48.1965 27.3354 48.5019C27.3197 48.7866 27.3032 49.0746 27.3032 49.3585C27.3032 49.5575 27.3621 49.7434 27.3675 49.9332C27.3803 50.3869 27.5892 50.7989 27.8014 51.1856C27.9357 51.4302 28.137 51.6229 28.3317 51.8199C28.4155 51.9047 28.4667 52.0031 28.5406 52.0946C28.6374 52.2143 28.7765 52.2811 28.8799 52.391C29.2188 52.7512 29.9508 52.8283 30.4191 52.8283C30.8034 52.8283 31.2031 52.9227 31.5958 52.9259C31.9117 52.9285 32.1771 52.9476 32.4297 52.7488C32.5962 52.6177 32.8353 52.5038 33.0243 52.4054C33.2161 52.3056 33.3731 52.0766 33.4921 51.8994C33.727 51.5498 34.073 51.3643 34.2599 50.9561C34.4073 50.6343 34.5199 50.2569 34.5921 49.9079C34.6823 49.4715 34.7565 48.9961 34.6563 48.5525C34.6062 48.3303 34.5558 48.112 34.5046 47.8874C34.4696 47.7341 34.3491 47.3974 34.2385 47.273C34.1206 47.1404 34.0705 46.9584 33.9403 46.8266C33.8308 46.7157 33.7609 46.58 33.651 46.4688C33.5056 46.3216 33.3899 46.1802 33.21 46.0694C32.8729 45.8617 32.4672 45.7678 32.1386 45.5562C31.9522 45.4361 31.512 45.3508 31.2887 45.3465C31.0353 45.3417 30.7799 45.314 30.5298 45.314C30.3783 45.314 30.175 45.2972 30.0352 45.3537C29.9396 45.3925 29.8379 45.4234 29.7406 45.4604C29.5926 45.5165 29.3784 45.4845 29.2477 45.558C29.1758 45.5984 28.9816 45.7284 28.9103 45.7369C28.7793 45.7525 28.738 45.8891 28.6531 45.9321" stroke="white" stroke-width="1.07605" stroke-linecap="round"/>
<path d="M32.0282 47.4935C31.972 47.5567 31.9601 47.5837 31.9959 47.6552" stroke="white" stroke-width="1.07605" stroke-linecap="round"/>
<path d="M29.5532 48.6971C29.5249 48.7424 29.5209 48.7607 29.5209 48.7941" stroke="white" stroke-width="1.07605" stroke-linecap="round"/>
<path d="M30.0352 50.9741L30.0675 51.0065" stroke="white" stroke-width="1.07605" stroke-linecap="round"/>
<path d="M32.1885 50.1934C32.2442 50.2666 32.3543 50.3152 32.4135 50.2258" stroke="white" stroke-width="1.07605" stroke-linecap="round"/>
<path d="M34.3742 43.8176C34.6544 43.5251 35.0089 43.5451 35.3777 43.4345C35.4863 43.4019 35.6417 43.3561 35.7563 43.3622C35.8778 43.3687 35.9902 43.447 36.1098 43.4598C36.2131 43.4708 36.4709 43.5327 36.558 43.6062C36.6078 43.6482 36.6732 43.6468 36.7205 43.6875C36.77 43.7301 36.8063 43.7846 36.8633 43.8176C36.9019 43.8399 36.9306 43.9099 36.9526 43.9477C36.9785 43.9922 37.0419 43.995 37.0723 44.0308C37.1865 44.1658 37.3824 44.3116 37.4597 44.4682" stroke="white" stroke-width="1.07605" stroke-linecap="round"/>
<path d="M39.5811 56.1789C40.0298 56.1789 40.4956 56.1722 40.931 56.056C41.0761 56.0172 41.2083 55.9351 41.3488 55.8933C41.6003 55.8185 41.5477 55.5636 41.7274 55.4307C41.889 55.3111 42.0238 54.9271 42.0238 54.7403C42.0238 54.6224 42.0341 54.3687 42.088 54.2596" stroke="white" stroke-width="1.07605" stroke-linecap="round"/>
<path d="M46.5876 54.1295C46.637 54.3821 46.6943 54.6108 46.7662 54.856C46.8749 55.2266 46.8992 55.6924 47.0858 56.0325C47.1969 56.2349 47.2065 56.3031 47.4519 56.374C47.6126 56.4205 47.7673 56.5308 47.9376 56.5764C48.0563 56.6082 48.1507 56.6668 48.2768 56.6668C48.3659 56.6668 48.828 56.6801 48.8054 56.6343" stroke="white" stroke-width="1.07605" stroke-linecap="round"/>
<path d="M36.6883 34.9695C36.2956 35.056 36.0857 35.0971 35.8348 35.4033C35.7427 35.5158 35.5912 35.6034 35.4831 35.7033C35.4056 35.7749 35.2375 35.8873 35.1849 35.978C35.1605 36.0199 35.1315 36.113 35.0974 36.1406C34.9282 36.2776 34.7035 36.4435 34.6242 36.6683C34.5602 36.8495 34.4321 37.0215 34.4081 37.2159C34.3825 37.4234 34.3513 37.6461 34.2778 37.843C34.1646 38.1461 34.1492 38.5154 34.1492 38.8388C34.1492 39.0201 34.1177 39.2619 34.2314 39.4098C34.3354 39.5453 34.457 39.6255 34.5742 39.7442C34.861 40.0345 35.4753 40.2515 35.8991 40.1345C36.1309 40.0705 36.296 39.8036 36.4651 39.6538C36.5886 39.5445 36.6909 39.4235 36.8098 39.3032C37.047 39.0631 37.3265 38.9093 37.5794 38.696C37.7503 38.5518 37.7037 38.2523 37.7186 38.0562C37.7357 37.8318 37.818 37.6394 37.8704 37.4273C37.9471 37.1171 37.9418 36.8173 37.9418 36.4984C37.9418 36.1053 37.8465 35.6611 37.6026 35.3436C37.4391 35.131 37.211 34.8514 36.9133 35.0021" stroke="white" stroke-width="1.07605" stroke-linecap="round"/>
<path d="M41.4451 32.6599C41.5705 32.919 41.6416 33.1428 41.6166 33.4334C41.5841 33.8109 41.5094 34.2243 41.5094 34.5973C41.5094 34.7639 41.3435 35.0363 41.2344 35.1467C41.1691 35.2128 41.1071 35.3374 41.022 35.3762C40.8745 35.4433 40.6705 35.5427 40.5059 35.5551C40.3608 35.566 40.1468 35.6395 40.0309 35.7177" stroke="white" stroke-width="1.07605" stroke-linecap="round"/>
<path d="M45.9449 40.0442C45.4874 39.469 44.7376 39.3285 44.0325 39.3285C43.7007 39.3285 43.3047 39.3973 43.0236 39.587C42.8753 39.687 42.6762 39.6631 42.5397 39.784C42.4074 39.9012 42.3065 39.9348 42.2094 40.0912C42.0957 40.2742 41.9939 40.5672 41.7826 40.6623C41.7114 40.6943 41.6778 40.8317 41.638 40.8972C41.5154 41.0989 41.4773 41.2645 41.4773 41.5062C41.4773 41.743 41.3809 41.9657 41.3809 42.193C41.3809 42.9331 41.4701 43.6848 41.8308 44.3236C41.9513 44.537 42.194 44.5431 42.4022 44.6056C42.4534 44.6209 42.4827 44.6309 42.5379 44.6309C42.6324 44.6309 42.5736 44.6045 42.5736 44.5459C42.5736 44.4455 42.6015 44.3061 42.6272 44.208C42.7045 43.9125 42.7342 43.6071 42.7951 43.299C42.8552 42.9947 42.9081 42.642 43.0683 42.3719C43.2626 42.0441 43.4907 41.7962 43.7932 41.5586C43.9816 41.4107 44.1632 41.242 44.3628 41.1177C44.5507 41.0007 44.8186 40.9003 45.0378 40.89C45.2321 40.8808 45.5695 40.8325 45.7127 40.6876C45.8103 40.5888 46.0091 40.5253 46.0091 40.3695" stroke="white" stroke-width="1.07605" stroke-linecap="round"/>
<path d="M43.2451 43.1345C43.7188 43.421 44.2107 43.6776 44.6665 43.9875C44.7863 44.069 44.9748 44.1184 44.9807 44.2803C44.9861 44.4272 45.0635 44.4357 45.1807 44.4357C45.3538 44.4357 45.5759 44.4683 45.6878 44.2983C45.8175 44.1015 45.9142 43.8619 46.0164 43.655C46.1399 43.405 46.4271 43.3043 46.4271 43.0044C46.4271 42.787 46.1985 42.5328 46.0164 42.4514C45.9023 42.4004 45.8296 42.2741 45.7271 42.2309C45.6244 42.1876 45.5088 42.1152 45.3986 42.061C45.1709 41.9491 44.9768 41.8944 44.7879 41.7032" stroke="white" stroke-width="1.07605" stroke-linecap="round"/>
<path d="M40.9309 47.8838C40.6538 47.8963 40.2837 47.8465 40.031 47.9886C39.6115 48.2244 39.2099 48.5626 38.8435 48.8759C38.2539 49.3804 37.7384 49.9771 37.6865 50.7916C37.657 51.2539 37.6591 51.6312 37.7972 52.0783C37.8462 52.237 37.894 52.3865 37.9739 52.5355C38.048 52.6736 38.1703 52.673 38.2989 52.7181C38.4471 52.77 38.592 52.8571 38.7525 52.8608C38.8638 52.8634 38.9509 52.8503 39.056 52.8084C39.4053 52.6691 39.8105 52.5729 40.1381 52.3909C40.4677 52.2078 40.6612 51.8418 40.9345 51.5904C41.0391 51.4941 41.1211 51.4386 41.188 51.3139C41.2962 51.1122 41.6046 51.0364 41.6987 50.8458C41.7422 50.7577 41.8104 50.6995 41.838 50.6018C41.8669 50.4993 41.8814 50.3913 41.913 50.291C41.9804 50.0766 41.9283 49.833 42.0076 49.6241C42.0574 49.4932 42.0493 49.3249 42.104 49.203C42.3032 48.7597 41.8071 48.3658 41.5487 48.1043C41.3576 47.9109 40.9352 47.9163 40.6738 47.9163" stroke="white" stroke-width="1.07605" stroke-linecap="round"/>
<path d="M48.5483 45.802C47.9928 45.9302 47.3427 46.0888 46.8913 46.4544C46.6883 46.6187 46.6383 46.8138 46.552 47.0706C46.3388 47.705 46.1798 48.3651 45.9021 48.9754C45.8135 49.1701 45.7347 49.3371 45.6717 49.5411C45.6212 49.7046 45.6948 50.013 45.7378 50.1808C45.8029 50.435 45.7891 50.7604 45.9003 50.994C45.9811 51.1639 46.121 51.2745 46.2235 51.426C46.4499 51.7605 46.7976 52.0663 47.1377 52.279C47.3838 52.4329 47.7097 52.403 47.9698 52.5284C48.3817 52.7269 48.821 52.8018 49.2697 52.8537C49.5551 52.8867 49.8887 52.8829 50.1714 52.8284C50.3504 52.7938 50.5535 52.7447 50.7214 52.6729C51.0369 52.5381 51.2349 52.2574 51.4892 52.0476C51.7296 51.8494 51.7064 51.5139 51.7803 51.2362C51.8362 51.026 51.9351 50.8355 52.066 50.6651C52.1513 50.5541 52.1823 50.4283 52.2124 50.291C52.2571 50.0872 52.3731 49.8863 52.3731 49.6748C52.3731 49.2561 52.5223 48.866 52.341 48.4531C52.288 48.3324 52.2845 48.2063 52.2302 48.0808C52.0859 47.7469 52.0038 47.3972 51.7303 47.1357C51.6185 47.0288 51.5418 46.8983 51.4339 46.7851C51.1567 46.4942 50.8068 46.3448 50.4482 46.1815C50.3343 46.1296 50.237 46.056 50.1393 45.9791C50.0223 45.887 49.8482 45.8562 49.7054 45.82C49.4012 45.7431 49.0607 45.7476 48.7555 45.8038C48.4575 45.8586 48.1686 46.014 47.8734 46.0947C47.6694 46.1505 47.4514 46.2648 47.2627 46.355C47.0873 46.4388 46.9216 46.5087 46.7556 46.608C46.6088 46.6958 46.3983 46.7368 46.2985 46.8827C46.0231 47.2853 45.6878 47.7761 45.6878 48.2742C45.6878 48.3837 45.7257 48.4936 45.7199 48.5995C45.7156 48.6777 45.6556 48.7419 45.6556 48.8272C45.6556 48.8923 45.686 49.2022 45.6556 49.2176" stroke="white" stroke-width="1.07605" stroke-linecap="round"/>
<path d="M49.7699 47.1681L49.7375 47.2005" stroke="white" stroke-width="1.07605" stroke-linecap="round"/>
<path d="M47.6483 48.4693L47.713 48.534" stroke="white" stroke-width="1.07605" stroke-linecap="round"/>
<path d="M49.3197 49.738V49.7704" stroke="white" stroke-width="1.07605" stroke-linecap="round"/>
<path d="M47.8733 51.2669L47.9056 51.2992" stroke="white" stroke-width="1.07605" stroke-linecap="round"/>
<path d="M50.9268 50.5188L50.9591 50.5511" stroke="white" stroke-width="1.07605" stroke-linecap="round"/>
<path d="M53.4337 54.7151C53.6191 54.9804 53.7416 55.1894 54.0586 55.2572C54.5523 55.3628 55.0351 55.3763 55.5371 55.3656C55.7589 55.3609 55.9176 55.1845 56.0049 55.0078" stroke="white" stroke-width="1.07605" stroke-linecap="round"/>
<path d="M49.5125 59.7571C49.7945 59.3467 50.0222 58.9672 50.4053 58.6656C50.5721 58.5343 50.7913 58.4452 50.9731 58.3421C51.3145 58.1485 51.5963 58.0258 51.9838 57.9644C52.371 57.903 52.6673 57.8964 53.0159 58.0728C53.2559 58.1943 53.4016 58.3337 53.6105 58.4903C53.8477 58.6681 54.0237 58.9113 54.2533 59.0921C54.3662 59.181 54.5195 59.2333 54.6158 59.3415C54.7135 59.4514 54.8456 59.5428 54.9372 59.6595C55.1115 59.8817 55.1372 60.2338 55.1372 60.5017C55.1372 60.699 55.1533 60.8309 55.2032 61.0077C55.2234 61.079 55.2657 61.2951 55.2657 61.221" stroke="white" stroke-width="1.07605" stroke-linecap="round"/>
<path d="M49.8339 59.4318C49.6662 59.6279 49.5413 59.8263 49.3893 60.0264C49.3559 60.0703 49.3112 60.0995 49.2875 60.1475" stroke="white" stroke-width="1.07605" stroke-linecap="round"/>
<path d="M54.4944 59.5294C54.6617 59.5972 55.0086 60.1002 55.0086 60.2776" stroke="white" stroke-width="1.07605" stroke-linecap="round"/>
</symbol>

<symbol width="75" height="65" viewBox="0 0 75 65" fill="none" xmlns="http://www.w3.org/2000/svg" id="logo-dark">
<path d="M10.7122 37.3295C10.5776 37.4449 10.4449 37.4972 10.3141 37.4863C10.1774 37.4683 10.0491 37.3877 9.92932 37.2446L4.21538 30.4158C4.09559 30.2726 4.03818 30.1313 4.04317 29.9918C4.04815 29.8524 4.10733 29.734 4.22071 29.6369C4.3341 29.5397 4.43356 29.4913 4.5191 29.4917C4.60574 29.4789 4.72642 29.4923 4.88114 29.5317L14.7355 31.7976L14.4804 32.0163L9.39537 25.9391C9.28157 25.8031 9.23016 25.669 9.24113 25.5366C9.24611 25.3972 9.31592 25.2697 9.45057 25.1543C9.57812 25.045 9.70673 25.0024 9.8364 25.0264C9.96715 25.0373 10.0894 25.1107 10.2032 25.2467L15.9441 32.1077C16.0579 32.2437 16.1159 32.3784 16.118 32.5118C16.1212 32.632 16.0661 32.7406 15.9527 32.8378C15.8464 32.9289 15.7434 32.9803 15.6437 32.9921C15.544 33.0038 15.4198 32.9935 15.271 32.9612L5.42726 30.6862L5.67175 30.4766L10.7478 36.543C10.8676 36.6862 10.925 36.8275 10.92 36.967C10.9091 37.0993 10.8398 37.2201 10.7122 37.3295ZM20.2145 29.2219C19.7113 29.6532 19.1827 29.9158 18.6285 30.0097C18.0743 30.1037 17.5268 30.0383 16.9858 29.8136C16.446 29.5756 15.9455 29.1811 15.4843 28.6299C15.1369 28.2147 14.8822 27.7939 14.7201 27.3675C14.5519 26.9339 14.4789 26.5048 14.5009 26.0803C14.5229 25.6558 14.6319 25.2551 14.8277 24.8784C15.0246 24.4883 15.3108 24.1324 15.6864 23.8104C16.1896 23.3792 16.7182 23.1166 17.2724 23.0227C17.8266 22.9287 18.3736 23.0007 18.9134 23.2387C19.4543 23.4634 19.9554 23.8513 20.4165 24.4025C20.7639 24.8176 21.0187 25.2384 21.1808 25.6649C21.343 26.0913 21.416 26.5204 21.4 26.9521C21.3779 27.3766 21.2685 27.7838 21.0716 28.1739C20.8757 28.5507 20.59 28.9 20.2145 29.2219ZM19.6305 28.524C19.9494 28.2507 20.1634 27.932 20.2726 27.568C20.3818 27.2041 20.3743 26.8171 20.2503 26.4071C20.1334 25.9911 19.8983 25.5719 19.5449 25.1496C18.9999 24.4982 18.4383 24.1252 17.8603 24.0306C17.2893 23.93 16.7594 24.0893 16.2704 24.5084C15.9444 24.7878 15.7268 25.1094 15.6177 25.4734C15.5096 25.8242 15.514 26.2076 15.6309 26.6236C15.7489 27.0264 15.9906 27.4462 16.356 27.8828C16.895 28.527 17.4566 28.9 18.0406 29.0017C18.6186 29.0963 19.1486 28.937 19.6305 28.524ZM25.7171 24.5056C25.3982 24.7789 25.0428 25.0159 24.651 25.2165C24.2662 25.4111 23.8548 25.5302 23.4167 25.5738C23.3039 25.5845 23.2064 25.5697 23.1241 25.5296C23.0359 25.4823 22.9683 25.4234 22.9215 25.3529C22.8758 25.2692 22.8532 25.1841 22.8538 25.0975C22.8615 25.0049 22.8942 24.9277 22.952 24.8658C23.0109 24.7908 23.1008 24.7383 23.2218 24.7084C23.6419 24.6433 24.0095 24.5372 24.3245 24.3901C24.6406 24.2298 24.9262 24.0403 25.1813 23.8216C25.5853 23.4754 25.8271 23.1391 25.9068 22.8126C25.9866 22.4862 25.9186 22.1941 25.703 21.9364C25.5353 21.736 25.3362 21.6362 25.1057 21.6371C24.8693 21.6308 24.5788 21.72 24.2344 21.9046L23.0874 22.5189C22.5631 22.8085 22.0952 22.9329 21.6839 22.8922C21.2796 22.8453 20.9248 22.6394 20.6193 22.2743C20.3498 21.9522 20.2007 21.6068 20.172 21.238C20.1444 20.856 20.2291 20.47 20.426 20.08C20.6229 19.69 20.9233 19.3219 21.3273 18.9756C21.6391 18.7084 21.9691 18.4993 22.3173 18.3483C22.6667 18.1841 23.0296 18.0942 23.4061 18.0788C23.5189 18.0682 23.6159 18.0896 23.697 18.1429C23.7793 18.183 23.8397 18.248 23.8784 18.3378C23.9181 18.4144 23.9341 18.499 23.9264 18.5916C23.9128 18.6771 23.8735 18.7538 23.8086 18.8217C23.7438 18.8895 23.6514 18.9318 23.5315 18.9486C23.1991 18.9876 22.8961 19.0691 22.6225 19.1929C22.343 19.3097 22.0969 19.4591 21.8843 19.6413C21.4874 19.9815 21.2521 20.3184 21.1784 20.652C21.1047 20.9856 21.1756 21.2812 21.3912 21.5389C21.5589 21.7394 21.7605 21.8493 21.9958 21.8688C22.2312 21.8884 22.5075 21.8113 22.8247 21.6378L23.9627 21.0127C24.5072 20.7181 24.9856 20.5846 25.3981 20.6121C25.8116 20.6264 26.1741 20.8197 26.4856 21.1919C26.8809 21.6643 27.0075 22.2011 26.8655 22.8022C26.7235 23.4033 26.3407 23.9711 25.7171 24.5056ZM31.1124 19.8812C30.7085 20.2274 30.3084 20.4474 29.9122 20.5411C29.5172 20.6216 29.1355 20.58 28.7673 20.4162C28.3931 20.2453 28.0353 19.9558 27.6939 19.5478L25.4029 16.8099L24.6907 17.4203C24.5702 17.5236 24.4541 17.5739 24.3425 17.5713C24.2248 17.5615 24.121 17.503 24.0312 17.3956C23.9413 17.2882 23.9043 17.1786 23.9202 17.0667C23.9361 16.9547 24.0042 16.8471 24.1247 16.7439L24.8369 16.1334L23.8037 14.8987C23.6839 14.7555 23.6331 14.6147 23.6511 14.4764C23.6632 14.3308 23.7365 14.2003 23.8712 14.0849C24.0058 13.9695 24.1415 13.9208 24.2783 13.9388C24.4161 13.9436 24.5449 14.0175 24.6647 14.1607L25.6979 15.3955L27.0373 14.2475C27.1577 14.1442 27.2738 14.0939 27.3855 14.0965C27.4972 14.0991 27.598 14.1541 27.6878 14.2615C27.7776 14.3688 27.8176 14.4821 27.8078 14.6012C27.7919 14.7131 27.7237 14.8207 27.6033 14.9239L26.2639 16.0719L28.483 18.724C28.8244 19.132 29.17 19.3705 29.5197 19.4394C29.8635 19.5012 30.2267 19.3681 30.6094 19.0402C30.744 18.9247 30.8455 18.8132 30.9136 18.7057C30.9889 18.592 31.0584 18.5078 31.1222 18.4532C31.18 18.3913 31.2511 18.3673 31.3355 18.3809C31.42 18.3946 31.5131 18.4623 31.6149 18.5839C31.6868 18.6698 31.735 18.7638 31.7594 18.8657C31.791 18.9616 31.7797 19.0572 31.7258 19.1527C31.6647 19.2542 31.5723 19.3764 31.4485 19.5194C31.3378 19.6634 31.2258 19.784 31.1124 19.8812ZM33.1737 18.0776C33.032 18.1991 32.8892 18.2538 32.7454 18.2419C32.6086 18.2239 32.4803 18.1433 32.3605 18.0002L28.6141 13.5228C28.4943 13.3797 28.4399 13.2419 28.4509 13.1096C28.4559 12.9701 28.5257 12.8427 28.6603 12.7273C28.795 12.6119 28.9307 12.5632 29.0674 12.5812C29.2053 12.5859 29.3341 12.6599 29.4539 12.8031L30.1816 13.6728L30.0753 13.7639C29.8353 13.2444 29.7789 12.7334 29.9062 12.231C30.0334 11.7287 30.3249 11.2699 30.7806 10.8547C30.8809 10.7564 30.9869 10.7086 31.0986 10.7112C31.2043 10.7066 31.3146 10.7657 31.4295 10.8885C31.5384 11.0041 31.5909 11.125 31.5871 11.2513C31.5832 11.3775 31.5199 11.5055 31.3972 11.6352L31.2451 11.8025C30.7992 12.2584 30.5589 12.7348 30.5243 13.2315C30.4908 13.715 30.6687 14.1894 31.058 14.6547L33.2322 17.2531C33.352 17.3962 33.4058 17.5406 33.3938 17.6861C33.3888 17.8256 33.3154 17.9561 33.1737 18.0776ZM38.14 13.8578C37.7857 14.1615 37.4099 14.3668 37.0126 14.4738C36.6165 14.5675 36.2351 14.5625 35.8684 14.4589C35.5018 14.3552 35.1927 14.153 34.9411 13.8524C34.6177 13.4659 34.4588 13.0796 34.4645 12.6937C34.4772 12.3018 34.6679 11.8679 35.0365 11.3922C35.4122 10.9104 35.9898 10.3355 36.7693 9.66735L37.2476 9.25736L37.7238 9.82643L37.2561 10.2273C36.6821 10.7193 36.2525 11.1367 35.9673 11.4794C35.6833 11.8089 35.5278 12.0958 35.501 12.34C35.4813 12.5782 35.5702 12.8154 35.7679 13.0516C36.0134 13.3451 36.3133 13.4998 36.6674 13.5159C37.0287 13.5259 37.3829 13.382 37.7301 13.0844C38.0136 12.8414 38.2047 12.5609 38.3035 12.2426C38.4094 11.9183 38.4238 11.5865 38.3466 11.247C38.2765 10.9014 38.1127 10.5748 37.8551 10.267L36.8309 9.04296C36.4596 8.59916 36.1045 8.35655 35.7656 8.31513C35.4207 8.26655 35.0463 8.41537 34.6424 8.76158C34.3944 8.97417 34.1733 9.21897 33.9792 9.49598C33.785 9.77298 33.6097 10.1015 33.4531 10.4816C33.3958 10.6167 33.3258 10.7075 33.2429 10.7539C33.1541 10.7932 33.0644 10.8024 32.974 10.7816C32.8836 10.7607 32.8049 10.7176 32.7379 10.6521C32.6649 10.5794 32.6162 10.4921 32.5917 10.3902C32.5744 10.2821 32.5902 10.1702 32.6393 10.0544C32.8194 9.62964 33.0318 9.25089 33.2766 8.91813C33.5214 8.58538 33.782 8.30056 34.0584 8.06367C34.5049 7.68102 34.9363 7.44033 35.3526 7.34162C35.7629 7.23575 36.1647 7.2724 36.558 7.45156C36.9453 7.62356 37.3336 7.9422 37.7229 8.40747L40.1577 11.3172C40.2774 11.4604 40.3348 11.6017 40.3299 11.7412C40.332 11.8746 40.2692 11.9959 40.1417 12.1053C40.007 12.2207 39.8713 12.2694 39.7346 12.2514C39.5978 12.2334 39.4696 12.1528 39.3498 12.0096L38.649 11.1721L38.7447 11.0901C38.9156 11.4107 39.0004 11.7375 38.9991 12.0705C39.005 12.3974 38.9359 12.7147 38.7918 13.0225C38.6478 13.3304 38.4305 13.6088 38.14 13.8578Z" fill="black"/>
<path d="M48.8746 26.7801C48.7933 26.6121 48.7763 26.4591 48.8235 26.3211C48.8832 26.1873 48.9967 26.079 49.1639 25.9961L57.0286 22.0973C57.2042 22.0102 57.3562 21.9922 57.4845 22.0431C57.6212 22.09 57.7302 22.1974 57.8116 22.3654L59.257 25.352C59.7164 26.3014 59.836 27.1483 59.6157 27.893C59.4038 28.6334 58.8756 29.213 58.031 29.6317C57.1948 30.0462 56.4185 30.1133 55.7022 29.833C54.9859 29.5527 54.398 28.9379 53.9386 27.9885L52.7371 25.506L49.664 27.0294C49.4968 27.1123 49.3427 27.1366 49.2017 27.1024C49.069 27.064 48.96 26.9565 48.8746 26.7801ZM53.6026 25.0769L54.7431 27.4334C55.0724 28.1139 55.471 28.5518 55.9387 28.747C56.4189 28.9465 56.9516 28.9011 57.537 28.611C58.1307 28.3166 58.4927 27.9184 58.623 27.4163C58.7657 26.9185 58.6724 26.3293 58.343 25.6488L57.2026 23.2923L53.6026 25.0769ZM52.6859 34.591C52.6046 34.423 52.5896 34.2742 52.6409 34.1446C52.7006 34.0108 52.8182 33.9004 52.9938 33.8134L58.124 31.2701C58.2997 31.1831 58.4538 31.1588 58.5864 31.1972C58.7191 31.2356 58.826 31.3388 58.9074 31.5068C58.9846 31.6665 58.9996 31.8153 58.9523 31.9533C58.9051 32.0913 58.7937 32.2038 58.618 32.2909L53.4878 34.8341C53.3122 34.9212 53.1519 34.9434 53.0068 34.9007C52.8742 34.8623 52.7672 34.7591 52.6859 34.591ZM60.3122 30.8104C60.2106 30.6004 60.1856 30.4096 60.2374 30.2381C60.2976 30.0624 60.4238 29.9269 60.6161 29.8316C60.8168 29.7321 60.9958 29.7163 61.1531 29.7842C61.3187 29.8479 61.4524 29.9848 61.554 30.1948C61.6597 30.4132 61.6846 30.604 61.6288 30.7671C61.5854 30.9345 61.4633 31.0679 61.2626 31.1674C61.0703 31.2627 60.8871 31.2806 60.7131 31.221C60.5516 31.1657 60.4179 31.0288 60.3122 30.8104ZM53.977 37.0982C53.9242 36.989 53.9065 36.8884 53.9242 36.7963C53.9418 36.7042 53.9864 36.6248 54.0578 36.5582C54.1292 36.4915 54.2212 36.4459 54.3338 36.4214C54.4463 36.3968 54.5689 36.4038 54.7015 36.4422L61.1502 37.6516L60.8868 37.7822L59.2584 34.4175C59.1934 34.2831 59.176 34.1615 59.2063 34.0528C59.249 33.9482 59.3331 33.8649 59.4586 33.8027C59.584 33.7405 59.6964 33.7265 59.7958 33.7605C59.8993 33.8029 59.9836 33.8914 60.0487 34.0258L61.921 37.8946C61.982 38.0206 62.0057 38.1338 61.9921 38.2343C61.9826 38.3432 61.9421 38.431 61.8707 38.4976C61.8076 38.5601 61.7198 38.6037 61.6073 38.6282C61.5071 38.657 61.3928 38.6564 61.2642 38.6264L54.7349 37.3788L55.0234 37.2358L56.7371 40.7769C56.8713 41.0541 56.8088 41.257 56.5495 41.3855C56.4241 41.4477 56.3055 41.4596 56.1936 41.4213C56.0942 41.3873 56.0119 41.303 55.9469 41.1686L53.977 37.0982ZM56.8001 42.9315C56.7472 42.8223 56.7296 42.7216 56.7472 42.6295C56.7649 42.5375 56.8094 42.4581 56.8808 42.3914C56.9523 42.3248 57.0443 42.2792 57.1568 42.2546C57.2693 42.2301 57.3919 42.237 57.5246 42.2754L63.9732 43.4849L63.7098 43.6155L62.0815 40.2508C62.0164 40.1164 61.9991 39.9948 62.0294 39.886C62.0721 39.7815 62.1562 39.6981 62.2816 39.636C62.407 39.5738 62.5195 39.5597 62.6189 39.5938C62.7224 39.6362 62.8067 39.7246 62.8717 39.8591L64.744 43.7278C64.805 43.8538 64.8287 43.9671 64.8151 44.0676C64.8056 44.1765 64.7651 44.2642 64.6937 44.3309C64.6307 44.3934 64.5428 44.4369 64.4303 44.4615C64.3302 44.4903 64.2158 44.4897 64.0873 44.4596L57.5579 43.212L57.8464 43.069L59.5602 46.6101C59.6943 46.8874 59.6318 47.0902 59.3726 47.2187C59.2471 47.2809 59.1285 47.2929 59.0167 47.2546C58.9172 47.2205 58.835 47.1363 58.7699 47.0019L56.8001 42.9315ZM60.3586 50.5738C60.1553 50.1538 60.0518 49.7363 60.0481 49.3215C60.0568 48.911 60.1565 48.5386 60.3473 48.2044C60.5381 47.8703 60.8091 47.6161 61.1603 47.442C61.6119 47.2182 62.0222 47.1554 62.3912 47.2537C62.7642 47.3604 63.1332 47.6515 63.4981 48.1269C63.867 48.6107 64.2751 49.3146 64.7223 50.2388L64.9967 50.8058L64.3319 51.1354L64.0636 50.5809C63.7343 49.9004 63.4406 49.3793 63.1826 49.0176C62.9371 48.6602 62.7004 48.439 62.4726 48.354C62.2489 48.2774 61.9991 48.3075 61.7231 48.4443C61.3803 48.6142 61.1571 48.8707 61.0535 49.2137C60.954 49.5652 61.0038 49.9467 61.2031 50.3583C61.3657 50.6944 61.5874 50.9491 61.8683 51.1223C62.1532 51.304 62.4682 51.3979 62.8133 51.4039C63.1624 51.4183 63.5168 51.3364 63.8764 51.1581L65.3063 50.4493C65.8248 50.1922 66.1461 49.9028 66.2702 49.5808C66.4027 49.2547 66.3531 48.8522 66.1213 48.3733C65.979 48.0793 65.7991 47.8039 65.5815 47.5472C65.3639 47.2904 65.0923 47.0397 64.7664 46.795C64.651 46.7064 64.5813 46.6159 64.5574 46.5236C64.5418 46.4272 64.5552 46.3372 64.5978 46.2536C64.6403 46.17 64.7013 46.1033 64.7808 46.0535C64.8688 45.9995 64.9647 45.9727 65.0686 45.9733C65.1767 45.9822 65.2802 46.0247 65.3791 46.1006C65.742 46.3791 66.0526 46.6782 66.3111 46.998C66.5695 47.3178 66.7781 47.6415 66.9366 47.9692C67.1928 48.4984 67.3164 48.9788 67.3075 49.4103C67.3069 49.8377 67.1717 50.2224 66.9018 50.5646C66.6403 50.9026 66.2377 51.2063 65.6942 51.4757L62.295 53.1608C62.1277 53.2438 61.9778 53.266 61.8451 53.2276C61.7166 53.1976 61.6157 53.107 61.5425 52.9557C61.4652 52.7961 61.4523 52.6515 61.5036 52.5219C61.5549 52.3923 61.6642 52.286 61.8315 52.2031L62.8098 51.7181L62.8647 51.8315C62.5144 51.9218 62.1796 51.9263 61.8603 51.845C61.5451 51.7721 61.2577 51.6282 60.9981 51.4131C60.7385 51.198 60.5253 50.9183 60.3586 50.5738Z" fill="black"/>
<path d="M23.8108 55.1562C23.8108 55.1562 21.6725 55.6972 20.6034 55.6972C19.5342 55.6972 17.9305 54.0742 17.9305 54.0742C17.9305 54.0742 19.5342 41.6304 24.3453 35.138C29.1564 28.6457 39.3132 23.7764 39.3132 23.7764C39.3132 23.7764 40.8748 24.5189 41.4515 25.3995C42.153 26.4707 41.986 28.6457 41.986 28.6457" stroke="black" stroke-width="1.07605"/>
<path d="M41.986 28.6456H42.5206" stroke="black" stroke-width="1.07605"/>
<path d="M59.6268 60.0255C59.6268 60.0255 60.3214 61.0004 60.1613 61.6486C59.9349 62.5653 58.0231 62.7307 58.0231 62.7307L44.1243 60.0255C44.1243 60.0255 43.6248 60.9503 43.0552 61.1076C42.4183 61.2834 41.4515 60.5665 41.4515 60.5665C41.4515 60.5665 41.8249 61.9747 41.4515 62.7307C41.1874 63.2652 40.9251 63.5773 40.3824 63.8127C39.8067 64.0624 39.3543 64.0624 38.7787 63.8127C38.2359 63.5773 38.0518 63.2176 37.7095 62.7307C36.7339 61.3426 37.175 58.4024 37.175 58.4024L32.8984 57.3203C32.8984 57.3203 33.0632 58.3319 32.8984 58.9434C32.7756 59.3992 32.6939 59.6914 32.3639 60.0255C32.0338 60.3596 31.7615 60.5665 31.2947 60.5665C30.8279 60.5665 30.2256 60.0255 30.2256 60.0255C29.8081 59.8142 29.5043 59.7995 29.1565 59.4845C28.3632 58.7661 28.6219 56.7793 28.6219 56.7793C28.6219 56.7793 25.5656 56.0855 23.8108 55.1562" stroke="black" stroke-width="1.07605"/>
<path d="M59.6267 60.0255L42.5206 29.1867H41.986V28.6456H42.5206" stroke="black" stroke-width="1.07605"/>
<path d="M59.5092 60.0499C59.5011 60.1232 59.4371 60.1146 59.3798 60.1146" stroke="black" stroke-width="0.538024" stroke-linecap="round"/>
<path d="M42.5381 28.6588H42.5058" stroke="black" stroke-width="0.538024" stroke-linecap="round"/>
<path d="M42.5381 28.5932C42.5096 28.5611 42.5058 28.5379 42.5058 28.4962" stroke="black" stroke-width="0.538024" stroke-linecap="round"/>
<path d="M42.4736 28.3986C42.4644 28.3143 42.3497 28.2881 42.3451 28.2034C42.3413 28.1347 42.3414 28.0984 42.3129 28.0408" stroke="black" stroke-width="0.538024" stroke-linecap="round"/>
<path d="M23.8107 55.1562C23.8107 55.1562 23.7301 50.8063 24.3453 48.1228C25.064 44.9879 25.8962 43.2954 27.5527 40.5483C29.2515 37.7312 30.4555 36.2423 32.8984 34.056C35.9828 31.2954 41.986 28.6456 41.986 28.6456" stroke="black" stroke-width="1.07605"/>
<path d="M28.5889 46.0296C28.2322 46.2751 28.0648 46.7553 27.7693 47.0543C27.6605 47.1644 27.6257 47.3812 27.5603 47.526C27.4322 47.8098 27.3521 48.1965 27.3354 48.5019C27.3197 48.7866 27.3032 49.0746 27.3032 49.3585C27.3032 49.5575 27.3621 49.7434 27.3675 49.9332C27.3803 50.3869 27.5892 50.7989 27.8014 51.1856C27.9357 51.4302 28.137 51.6229 28.3317 51.8199C28.4155 51.9047 28.4667 52.0031 28.5406 52.0946C28.6374 52.2143 28.7765 52.2811 28.8799 52.391C29.2188 52.7512 29.9508 52.8283 30.4191 52.8283C30.8034 52.8283 31.2031 52.9227 31.5958 52.9259C31.9117 52.9285 32.1771 52.9476 32.4297 52.7488C32.5962 52.6177 32.8353 52.5038 33.0243 52.4054C33.2161 52.3056 33.3731 52.0766 33.4921 51.8994C33.727 51.5498 34.073 51.3643 34.2599 50.9561C34.4073 50.6343 34.5199 50.2569 34.5921 49.9079C34.6823 49.4715 34.7565 48.9961 34.6563 48.5525C34.6062 48.3303 34.5558 48.112 34.5046 47.8874C34.4696 47.7341 34.3491 47.3974 34.2385 47.273C34.1206 47.1404 34.0705 46.9584 33.9403 46.8266C33.8308 46.7157 33.7609 46.58 33.651 46.4688C33.5056 46.3216 33.3899 46.1802 33.21 46.0694C32.8729 45.8617 32.4672 45.7678 32.1386 45.5562C31.9522 45.4361 31.512 45.3508 31.2887 45.3465C31.0353 45.3417 30.7799 45.314 30.5298 45.314C30.3783 45.314 30.175 45.2972 30.0352 45.3537C29.9396 45.3925 29.8379 45.4234 29.7406 45.4604C29.5926 45.5165 29.3784 45.4845 29.2477 45.558C29.1758 45.5984 28.9816 45.7284 28.9103 45.7369C28.7793 45.7525 28.738 45.8891 28.6531 45.9321" stroke="black" stroke-width="1.07605" stroke-linecap="round"/>
<path d="M32.0282 47.4935C31.972 47.5567 31.9601 47.5837 31.9959 47.6552" stroke="black" stroke-width="1.07605" stroke-linecap="round"/>
<path d="M29.5532 48.6971C29.5249 48.7424 29.5209 48.7607 29.5209 48.7941" stroke="black" stroke-width="1.07605" stroke-linecap="round"/>
<path d="M30.0352 50.9741L30.0675 51.0065" stroke="black" stroke-width="1.07605" stroke-linecap="round"/>
<path d="M32.1885 50.1934C32.2442 50.2666 32.3543 50.3152 32.4135 50.2258" stroke="black" stroke-width="1.07605" stroke-linecap="round"/>
<path d="M34.3742 43.8176C34.6544 43.5251 35.0089 43.5451 35.3777 43.4345C35.4863 43.4019 35.6417 43.3561 35.7563 43.3622C35.8778 43.3687 35.9902 43.447 36.1098 43.4598C36.2131 43.4708 36.4709 43.5327 36.558 43.6062C36.6078 43.6482 36.6732 43.6468 36.7205 43.6875C36.77 43.7301 36.8063 43.7846 36.8633 43.8176C36.9019 43.8399 36.9306 43.9099 36.9526 43.9477C36.9785 43.9922 37.0419 43.995 37.0723 44.0308C37.1865 44.1658 37.3824 44.3116 37.4597 44.4682" stroke="black" stroke-width="1.07605" stroke-linecap="round"/>
<path d="M39.5811 56.1789C40.0298 56.1789 40.4956 56.1722 40.931 56.056C41.0761 56.0172 41.2083 55.9351 41.3488 55.8933C41.6003 55.8185 41.5477 55.5636 41.7274 55.4307C41.889 55.3111 42.0238 54.9271 42.0238 54.7403C42.0238 54.6224 42.0341 54.3687 42.088 54.2596" stroke="black" stroke-width="1.07605" stroke-linecap="round"/>
<path d="M46.5876 54.1295C46.637 54.3821 46.6943 54.6108 46.7662 54.856C46.8749 55.2266 46.8992 55.6924 47.0858 56.0325C47.1969 56.2349 47.2065 56.3031 47.4519 56.374C47.6126 56.4205 47.7673 56.5308 47.9376 56.5764C48.0563 56.6082 48.1507 56.6668 48.2768 56.6668C48.3659 56.6668 48.828 56.6801 48.8054 56.6343" stroke="black" stroke-width="1.07605" stroke-linecap="round"/>
<path d="M36.6883 34.9695C36.2956 35.056 36.0857 35.0971 35.8348 35.4033C35.7427 35.5158 35.5912 35.6034 35.4831 35.7033C35.4056 35.7749 35.2375 35.8873 35.1849 35.978C35.1605 36.0199 35.1315 36.113 35.0974 36.1406C34.9282 36.2776 34.7035 36.4435 34.6242 36.6683C34.5602 36.8495 34.4321 37.0215 34.4081 37.2159C34.3825 37.4234 34.3513 37.6461 34.2778 37.843C34.1646 38.1461 34.1492 38.5154 34.1492 38.8388C34.1492 39.0201 34.1177 39.2619 34.2314 39.4098C34.3354 39.5453 34.457 39.6255 34.5742 39.7442C34.861 40.0345 35.4753 40.2515 35.8991 40.1345C36.1309 40.0705 36.296 39.8036 36.4651 39.6538C36.5886 39.5445 36.6909 39.4235 36.8098 39.3032C37.047 39.0631 37.3265 38.9093 37.5794 38.696C37.7503 38.5518 37.7037 38.2523 37.7186 38.0562C37.7357 37.8318 37.818 37.6394 37.8704 37.4273C37.9471 37.1171 37.9418 36.8173 37.9418 36.4984C37.9418 36.1053 37.8465 35.6611 37.6026 35.3436C37.4391 35.131 37.211 34.8514 36.9133 35.0021" stroke="black" stroke-width="1.07605" stroke-linecap="round"/>
<path d="M41.4451 32.6599C41.5705 32.919 41.6416 33.1428 41.6166 33.4334C41.5841 33.8109 41.5094 34.2243 41.5094 34.5973C41.5094 34.7639 41.3435 35.0363 41.2344 35.1467C41.1691 35.2128 41.1071 35.3374 41.022 35.3762C40.8745 35.4433 40.6705 35.5427 40.5059 35.5551C40.3608 35.566 40.1468 35.6395 40.0309 35.7177" stroke="black" stroke-width="1.07605" stroke-linecap="round"/>
<path d="M45.9449 40.0442C45.4874 39.469 44.7376 39.3285 44.0325 39.3285C43.7007 39.3285 43.3047 39.3973 43.0236 39.587C42.8753 39.687 42.6762 39.6631 42.5397 39.784C42.4074 39.9012 42.3065 39.9348 42.2094 40.0912C42.0957 40.2742 41.9939 40.5672 41.7826 40.6623C41.7114 40.6943 41.6778 40.8317 41.638 40.8972C41.5154 41.0989 41.4773 41.2645 41.4773 41.5062C41.4773 41.743 41.3809 41.9657 41.3809 42.193C41.3809 42.9331 41.4701 43.6848 41.8308 44.3236C41.9513 44.537 42.194 44.5431 42.4022 44.6056C42.4534 44.6209 42.4827 44.6309 42.5379 44.6309C42.6324 44.6309 42.5736 44.6045 42.5736 44.5459C42.5736 44.4455 42.6015 44.3061 42.6272 44.208C42.7045 43.9125 42.7342 43.6071 42.7951 43.299C42.8552 42.9947 42.9081 42.642 43.0683 42.3719C43.2626 42.0441 43.4907 41.7962 43.7932 41.5586C43.9816 41.4107 44.1632 41.242 44.3628 41.1177C44.5507 41.0007 44.8186 40.9003 45.0378 40.89C45.2321 40.8808 45.5695 40.8325 45.7127 40.6876C45.8103 40.5888 46.0091 40.5253 46.0091 40.3695" stroke="black" stroke-width="1.07605" stroke-linecap="round"/>
<path d="M43.2451 43.1345C43.7188 43.421 44.2107 43.6776 44.6665 43.9875C44.7863 44.069 44.9748 44.1184 44.9807 44.2803C44.9861 44.4272 45.0635 44.4357 45.1807 44.4357C45.3538 44.4357 45.5759 44.4683 45.6878 44.2983C45.8175 44.1015 45.9142 43.8619 46.0164 43.655C46.1399 43.405 46.4271 43.3043 46.4271 43.0044C46.4271 42.787 46.1985 42.5328 46.0164 42.4514C45.9023 42.4004 45.8296 42.2741 45.7271 42.2309C45.6244 42.1876 45.5088 42.1152 45.3986 42.061C45.1709 41.9491 44.9768 41.8944 44.7879 41.7032" stroke="black" stroke-width="1.07605" stroke-linecap="round"/>
<path d="M40.9309 47.8838C40.6538 47.8963 40.2837 47.8465 40.031 47.9886C39.6115 48.2244 39.2099 48.5626 38.8435 48.8759C38.2539 49.3804 37.7384 49.9771 37.6865 50.7916C37.657 51.2539 37.6591 51.6312 37.7972 52.0783C37.8462 52.237 37.894 52.3865 37.9739 52.5355C38.048 52.6736 38.1703 52.673 38.2989 52.7181C38.4471 52.77 38.592 52.8571 38.7525 52.8608C38.8638 52.8634 38.9509 52.8503 39.056 52.8084C39.4053 52.6691 39.8105 52.5729 40.1381 52.3909C40.4677 52.2078 40.6612 51.8418 40.9345 51.5904C41.0391 51.4941 41.1211 51.4386 41.188 51.3139C41.2962 51.1122 41.6046 51.0364 41.6987 50.8458C41.7422 50.7577 41.8104 50.6995 41.838 50.6018C41.8669 50.4993 41.8814 50.3913 41.913 50.291C41.9804 50.0766 41.9283 49.833 42.0076 49.6241C42.0574 49.4932 42.0493 49.3249 42.104 49.203C42.3032 48.7597 41.8071 48.3658 41.5487 48.1043C41.3576 47.9109 40.9352 47.9163 40.6738 47.9163" stroke="black" stroke-width="1.07605" stroke-linecap="round"/>
<path d="M48.5483 45.802C47.9928 45.9302 47.3427 46.0888 46.8913 46.4544C46.6883 46.6187 46.6383 46.8138 46.552 47.0706C46.3388 47.705 46.1798 48.3651 45.9021 48.9754C45.8135 49.1701 45.7347 49.3371 45.6717 49.5411C45.6212 49.7046 45.6948 50.013 45.7378 50.1808C45.8029 50.435 45.7891 50.7604 45.9003 50.994C45.9811 51.1639 46.121 51.2745 46.2235 51.426C46.4499 51.7605 46.7976 52.0663 47.1377 52.279C47.3838 52.4329 47.7097 52.403 47.9698 52.5284C48.3817 52.7269 48.821 52.8018 49.2697 52.8537C49.5551 52.8867 49.8887 52.8829 50.1714 52.8284C50.3504 52.7938 50.5535 52.7447 50.7214 52.6729C51.0369 52.5381 51.2349 52.2574 51.4892 52.0476C51.7296 51.8494 51.7064 51.5139 51.7803 51.2362C51.8362 51.026 51.9351 50.8355 52.066 50.6651C52.1513 50.5541 52.1823 50.4283 52.2124 50.291C52.2571 50.0872 52.3731 49.8863 52.3731 49.6748C52.3731 49.2561 52.5223 48.866 52.341 48.4531C52.288 48.3324 52.2845 48.2063 52.2302 48.0808C52.0859 47.7469 52.0038 47.3972 51.7303 47.1357C51.6185 47.0288 51.5418 46.8983 51.4339 46.7851C51.1567 46.4942 50.8068 46.3448 50.4482 46.1815C50.3343 46.1296 50.237 46.056 50.1393 45.9791C50.0223 45.887 49.8482 45.8562 49.7054 45.82C49.4012 45.7431 49.0607 45.7476 48.7555 45.8038C48.4575 45.8586 48.1686 46.014 47.8734 46.0947C47.6694 46.1505 47.4514 46.2648 47.2627 46.355C47.0873 46.4388 46.9216 46.5087 46.7556 46.608C46.6088 46.6958 46.3983 46.7368 46.2985 46.8827C46.0231 47.2853 45.6878 47.7761 45.6878 48.2742C45.6878 48.3837 45.7257 48.4936 45.7199 48.5995C45.7156 48.6777 45.6556 48.7419 45.6556 48.8272C45.6556 48.8923 45.686 49.2022 45.6556 49.2176" stroke="black" stroke-width="1.07605" stroke-linecap="round"/>
<path d="M49.7699 47.1681L49.7375 47.2005" stroke="black" stroke-width="1.07605" stroke-linecap="round"/>
<path d="M47.6483 48.4693L47.713 48.534" stroke="black" stroke-width="1.07605" stroke-linecap="round"/>
<path d="M49.3197 49.738V49.7704" stroke="black" stroke-width="1.07605" stroke-linecap="round"/>
<path d="M47.8733 51.2669L47.9056 51.2992" stroke="black" stroke-width="1.07605" stroke-linecap="round"/>
<path d="M50.9268 50.5188L50.9591 50.5511" stroke="black" stroke-width="1.07605" stroke-linecap="round"/>
<path d="M53.4337 54.7151C53.6191 54.9804 53.7416 55.1894 54.0586 55.2572C54.5523 55.3628 55.0351 55.3763 55.5371 55.3656C55.7589 55.3609 55.9176 55.1845 56.0049 55.0078" stroke="black" stroke-width="1.07605" stroke-linecap="round"/>
<path d="M49.5125 59.7571C49.7945 59.3467 50.0222 58.9672 50.4053 58.6656C50.5721 58.5343 50.7913 58.4452 50.9731 58.3421C51.3145 58.1485 51.5963 58.0258 51.9838 57.9644C52.371 57.903 52.6673 57.8964 53.0159 58.0728C53.2559 58.1943 53.4016 58.3337 53.6105 58.4903C53.8477 58.6681 54.0237 58.9113 54.2533 59.0921C54.3662 59.181 54.5195 59.2333 54.6158 59.3415C54.7135 59.4514 54.8456 59.5428 54.9372 59.6595C55.1115 59.8817 55.1372 60.2338 55.1372 60.5017C55.1372 60.699 55.1533 60.8309 55.2032 61.0077C55.2234 61.079 55.2657 61.2951 55.2657 61.221" stroke="black" stroke-width="1.07605" stroke-linecap="round"/>
<path d="M49.8339 59.4318C49.6662 59.6279 49.5413 59.8263 49.3893 60.0264C49.3559 60.0703 49.3112 60.0995 49.2875 60.1475" stroke="black" stroke-width="1.07605" stroke-linecap="round"/>
<path d="M54.4944 59.5294C54.6617 59.5972 55.0086 60.1002 55.0086 60.2776" stroke="black" stroke-width="1.07605" stroke-linecap="round"/>
</symbol>
</svg>
